<svg id="Layer_1" data-name="Layer 1" xmlns="http://www.w3.org/2000/svg" viewBox="0 0 841.89 595.28"><title>Untitled-1</title><path d="M357.05,364.12c.39-8.62.39-17.28,1.28-25.84.83-7.92,6.12-11.69,14.67-11.6,5.65.06,9.69,3.77,10.05,11.35.65,13.74.48,27.53.48,41.29a40.52,40.52,0,0,1-1.11,10.32c-1.68,6.4-7.65,9.7-15.27,9-5.27-.48-8.56-3.8-9-10.63-.48-7.93-.11-15.92-.11-23.89Zm10.24-2h0c0,7.48-.12,15,.12,22.43,0,1.42,1.55,2.78,2.39,4.18a31.4,31.4,0,0,0,4-3.51c.53-.63.42-1.9.4-2.88-.25-13.78-.44-27.56-.94-41.33-.06-1.57-2-3.07-3-4.61-1,1.6-2.79,3.15-2.86,4.79C367.11,348.18,367.29,355.17,367.29,362.15Z"/><path d="M494.46,338.08c5.12,1.87,5.35,6.47,5.52,11.24.28,7.92.78,15.83,1.22,24.24l-10.28,2.13c-.22-3.41-.55-6.46-.58-9.51-.06-5.83.08-11.66.08-17.49,0-5.55-.92-6.23-6.92-4.93v32.82l-9.12,1.55V307.66c5.06-.67,10.75-1.53,16.46-2.15,4.58-.49,7.82,2.16,8.21,6.26a106,106,0,0,1-.16,19.75C498.68,333.72,496.14,335.7,494.46,338.08Zm-10.87-22.89V335.4c4.92,1.12,6.69-1.19,6.78-5.45.07-3.31.11-6.64,0-9.95C490.31,314.42,489.56,313.9,483.59,315.19Z"/><path d="M415.63,286.85c-.51,4.84-.87,12.65-2.27,20.26-1.35,7.35-6.83,10.92-14.15,10.45-6.42-.42-10.33-4.15-10.74-11.45-.5-8.89-.43-17.82-.42-26.73,0-6.33-.06-12.68.54-19C389.7,248.56,394.81,246.6,405,246c4.91-.29,8.69,4.18,9.14,10.52C414.79,265.63,415.06,274.76,415.63,286.85Zm-18.14-5.16h.1c0,7.13-.18,14.27.15,21.39.07,1.54,2,3,3,4.5a53.61,53.61,0,0,0,4.23-4.16c.42-.52.2-1.61.2-2.44-.06-13.09,0-26.19-.35-39.28-.05-1.95-2.05-3.86-3.15-5.79-1.4,2-3.84,3.83-4,5.89C397.16,268.39,397.49,275.05,397.49,281.69Z"/><path d="M356.29,254.42c4.49-.78,9.64-2.07,14.85-2.45a8,8,0,0,1,8.85,6.62,61.24,61.24,0,0,1,.83,17.29c-.38,3.37-3.34,6.46-5.11,9.64,4.21.94,5.46,4.69,5.59,9.37.24,8.41.65,16.81,1,26l-9.23,1.5a51.19,51.19,0,0,1-.73-5.72c-.08-7,0-14-.07-21,0-2.82-.5-5.25-4.35-5.2s-3.56,2.45-3.47,5.07c.23,6.65.43,13.3.49,20,.08,10.06,1.54,8.1-8.67,10.12Zm8.16,28.35,2.11,1.34c1.89-1.82,5.09-3.42,5.42-5.49.73-4.55,0-9.34-.11-14-.07-3.09-2-3.22-4.44-3.09-2.77.15-3.1,1.56-3,3.93C364.56,271.21,364.45,277,364.45,282.77Z"/><path d="M523.44,322.56c0-2.92.33-5.93-.12-8.82-.27-1.71-1.77-3.23-2.71-4.84-1.38,1.64-3.71,3.15-4,4.94-.76,5.76,1,10.76,6.15,14.25,4.92,3.34,9.66,7.39,9.88,13.65a78.4,78.4,0,0,1-1.62,21c-1.54,6.36-8,9.45-14.54,8.87-5.51-.49-9.57-4.15-10-10s-.1-11.6-.1-17.74l8.56-1.45c.44,5.58.65,10.7,1.39,15.74.19,1.24,2.29,3.21,3.24,3.06,1.36-.2,3.47-2,3.52-3.2.36-8.45,1-16.75-8.08-22.35s-11.77-18.7-6.82-28.35c2.52-4.93,11.1-8.25,17.39-6.74,4.15,1,6.45,5,6.65,11.64,0,.83,0,1.66,0,2.5C532.33,322.75,532.17,322.9,523.44,322.56Z"/><path d="M493.34,254.45c0-3.33.44-6.39-.16-9.23-.39-1.83-2.31-3.33-3.54-5-1.14,1.55-3,3-3.29,4.68-1.15,7.15,1.22,12.74,7.45,17.13,9.8,6.89,12.43,24.77,5.64,34.78-3.15,4.63-9.71,6.7-15.55,4.9-5.13-1.59-7.36-5-7.44-11.49-.06-5,0-9.92,0-15.28l8.77-.61c0,4.93-.24,9.55.13,14.12.12,1.5,1.81,2.87,2.78,4.31,1.42-1.29,3.93-2.47,4.07-3.89.79-7.89.63-15.23-7.34-20.64-9.27-6.28-10.27-16.19-8.08-26.36,1.55-7.22,12.67-12.92,19.15-9.67,2.32,1.16,4.14,4.18,5.2,6.75.95,2.34.8,5.24.73,7.87C501.68,254,501.6,254,493.34,254.45Z"/><path d="M412.67,344.43l-7.24.5a95.54,95.54,0,0,0-1.18-10.55c-.31-1.41-2-2.51-3.06-3.76-1.29,1.26-3.54,2.39-3.7,3.78-.75,6.33.17,12.13,6,16.38,11.07,8.09,12.44,22,9.18,33.39-2,6.9-11,10.95-17.91,8.91-6-1.78-6.68-6.84-7.26-11.75-.43-3.61.12-7.34-.18-11-.33-4,.91-6,5.15-5.75a21.38,21.38,0,0,0,3.93-.56c0,4.89-.33,9.72.17,14.46.18,1.8,2.26,3.41,3.47,5.1,1.45-1.7,3.9-3.26,4.17-5.13,1.11-7.72-1.4-14.25-7.41-19.58-9.27-8.2-11.94-19.6-7.55-30.21,2.2-5.31,6.77-7.64,14-7.08,5.09.4,7.15,4.13,8,8.32C412.13,334.58,412.21,339.41,412.67,344.43Z"/><path d="M326.64,405.64c0-17.13,0-33.55,0-50,0-5.48.21-11,.1-16.43-.07-3.41,1.32-5.19,4.68-5.64a31.16,31.16,0,0,0,5.85-1.21c9.24-3.17,15.17,2.78,15.23,13.69,0,3.28.71,6.55.65,9.82-.16,8.16-2.78,11.57-10.76,12.81-5.27.83-6.69,3.08-6.25,8.27.61,7.11-.06,14.32.38,21.45.26,4.4-.79,6.66-5.52,6.32C330.07,404.68,329.09,405.12,326.64,405.64Zm9.76-44.55,2.34,1c1.52-1.4,4.15-2.66,4.35-4.24a60,60,0,0,0-.07-13.33c-.09-1-2.11-2.38-3.4-2.59-.94-.16-3,1.29-3.08,2.09C336.27,349.69,336.4,355.39,336.4,361.09Z"/><path d="M335.83,329.53l-9.19,1.63V260c4.86-.76,10.63-2.07,16.45-2.43,4.33-.26,7.79,3.65,8.2,9a149,149,0,0,1,.21,18.9c-.28,5.41-3.14,8.08-9.54,9-4.89.73-6.92,2.14-6.35,7.85C336.46,311.07,335.83,320,335.83,329.53Zm-.14-61.44v19.63c4.87.21,7.11-1.64,6.76-6.38-.2-2.79-.09-5.61-.09-8.41C342.37,268.43,340.49,266.47,335.69,268.09Z"/><path d="M225.64,310.18c1.53,6.57,3,12.86,4.45,19.14l1.19-.15V309.88l8.51.7V363.4h-8.73c-1.77-8.29-3.51-16.46-5.26-24.63l-1,.14v24.44H216V310.18Z"/><path d="M170,363.55H159.61c0-6.17.16-12.2-.11-18.21-.07-1.43-1.57-2.8-2.41-4.2l-1.37.75v21.47H146V310.3c5.74,0,11.75-.15,17.75.13a4.59,4.59,0,0,1,3.11,2.86c2,7.9,3.29,15.84-1.45,23.78C171.71,344.62,165.77,354.64,170,363.55Zm-9.24-37.62c-1.32-3.15-2.66-7.87-3.35-7.78-4.84.66-2.44,4.87-2.53,7.54-.09,2.33-2.05,6.31,2.29,6.67C158.14,332.44,159.47,328.32,160.75,325.93Z"/><path d="M61,363.43H52.35c0-6.31.14-12.41-.13-18.49,0-1.17-1.69-2.26-2.6-3.39-.73,1.19-2,2.35-2.07,3.57-.22,5.95-.1,11.91-.1,18.2H38.38V309.79c4.45,0,9.56-.15,14.67,0,4.68.18,7.35,2.68,7.35,7.56s.15,9.6-.16,14.38c-.12,1.76-1.37,3.44-1.65,4.1.9,5.12,2,9.49,2.36,13.92S61,358.65,61,363.43ZM47.32,332.12l1.61,1.23c1.14-1.11,3.06-2.11,3.25-3.37a34.56,34.56,0,0,0,0-9.42c-.13-1-1.87-1.84-2.88-2.75-.66,1-1.83,1.91-1.89,2.92C47.18,324.51,47.32,328.32,47.32,332.12Z"/><path d="M447.61,312c4.95-.79,9.88-1.31,14.68-2.43,4.09-1,5.68.11,5.06,4.32a35.38,35.38,0,0,0-.2,3.75c-.49.34-.73.62-1,.69-8.8,2-8.79,2-8.75,10.81,0,3.79,0,7.58,0,11.8l8.6-.68v7l-8.48,1.91v23.71l11.83-1.37v8.84l-21.73,3.91Z"/><path d="M264.67,332.31c-5.39-1.43-9.06-3.9-8.25-10.23.15-1.11-1.36-2.43-2.1-3.65-.73,1.23-2.08,2.46-2.1,3.7q-.25,14.7,0,29.4c0,1.34,1.32,2.65,2,4,.76-1.41,2.1-2.78,2.17-4.22.25-5.43.1-10.88.1-17.08l9.66,4.9v24.43c-6.12,0-11.58.42-16.93-.13-4-.41-5.8-3.8-5.83-7.6-.11-12.8-.13-25.61.06-38.42.06-4.79,2.78-7.24,7.47-7.62,11.57-1,14.6,2,14.1,13.65C265,326.37,264.8,329.32,264.67,332.31Z"/><path d="M120.45,310h20.88v19.26c-4.29-1.51-8.16-3.05-7.12-8.85.12-.71-1.45-1.73-2.24-2.6-.86.81-2.4,1.58-2.47,2.46-.28,3.58-.12,7.21-.12,11.48l7.6-.92v9.44c-1-.18-2-.41-3.06-.53-.65-.08-1.61-.3-1.94,0-1,1-2.5,2.31-2.43,3.4.27,4.05-.1,9,2.12,11.76,1.71,2.1,3-1.92,2.58-3.88-1.31-6.44,2.77-8.31,7.9-10v22.36h-21.7Z"/><path d="M460.51,265.65h7.56V272c-7.58,2.44-7.59,2.44-7.61,10.38q0,7,0,14c0,.3.26.6.52,1.16l11-1.69c1.79,8.28,1.47,8.91-6.21,10-4.9.69-9.85,1-14.69,1.52V237.44L471,234.21v8.61c-.39.26-.63.54-.92.6-9.62,1.85-9.62,1.85-9.58,11.65C460.52,258.53,460.51,262,460.51,265.65Z"/><path d="M239.36,277.7c0,5,.13,10,0,15-.22,7.26-4.06,11.34-10.82,11.8-6.51.44-11.26-2.89-11.68-10.08a318,318,0,0,1,0-34.38c.33-6.47,5.2-9.63,11.88-9.34,5.87.26,10.06,4.21,10.46,10.58.35,5.46.08,11,.08,16.45Zm-8,5.05-.81,0c0-6.47.13-12.94-.11-19.4-.05-1.26-1.54-2.46-2.36-3.69-1.14,1.19-3.26,2.37-3.27,3.58-.12,9.77.07,19.56.42,29.33,0,1,1.66,2,2.55,3,.94-1,2.5-1.83,2.7-2.94C231.09,289.39,231.13,286.05,231.39,282.75Z"/><path d="M66.83,310.15H88.06v18.79c-3.91-1.23-7.73-2.15-7.25-7.82.11-1.22-1.85-2.62-2.86-3.94l-1.47.84V331.6l6.85-.4v8.52c-2.26.19-5.12-.38-6.37.78s-.71,4-.83,6.12a18.12,18.12,0,0,0,.09,5.46c.33,1.25,1.67,2.23,2.56,3.33.65-1.09,1.84-2.17,1.88-3.28.24-7.66.16-7.66,8-10.58v21.87H66.83Z"/><path d="M125.66,303.63h-21v-18.9c3.75,1.65,7.5,2.47,6.86,7.76-.43,3.51,1.87,3.61,4.69,2.76V282.56l-7.43.49v-9.41c1.67.23,3.26.88,4.58.52s2.84-1.64,3-2.68a52.71,52.71,0,0,0,0-10c-.07-1-1.29-1.86-2-2.79-1,.91-1.95,1.8-2.86,2.75-.16.17-.07.66,0,1,1.49,6.16-2.17,8.56-7.65,10.08V251h21.84Z"/><path d="M444.76,322.13c-.58.33-.72.43-.87.49-2.6,1-6.21,1.27-7.53,3.15s-.46,5.41-.48,8.21q-.15,23.58-.27,47.17c0,1.31-.18,2.62-.31,4.26l-9.78,1.82V326.51l-8.84,1.06a68.26,68.26,0,0,1,.1-7.49,3.21,3.21,0,0,1,2-2.29c8.29-1.56,16.62-2.93,25.41-4.44C444.37,316.46,444.56,319.19,444.76,322.13Z"/><path d="M533.19,224.34v9.24c-.4.29-.64.63-.92.67-7.29,1-7.12,1-7.15,8.3-.06,15.73-.49,31.46-.37,47.19,0,4.74-1,7.34-6.2,6.87a16.14,16.14,0,0,0-3.72.62V237.71h-8.11v-8.94Z"/><path d="M111.5,363.46H97.62C96,345.57,94.39,328,92.76,310.09h8.6c.81,9,1.6,17.91,2.4,26.78l1.48-.07c.76-8.83,1.51-17.65,2.28-26.78h7.59Z"/><path d="M418.81,243.19,446,238.5c.14,3.05.27,5.76.39,8.29-.49.4-.7.69-1,.77-8.06,2.42-8.07,2.41-8.07,11v51.82l-9.25,1.54V251.44l-9.25,1Z"/><path d="M141.62,250.81h9.45v52.73c-5.18,0-11.12.44-16.92-.26-1.84-.22-4.52-3.35-4.75-5.38a123.65,123.65,0,0,1-.67-20.81c.22-3.88,3.46-6,7.55-5.45,4.63.64,5.69-1.42,5.41-5.63C141.36,261.08,141.62,256.11,141.62,250.81Zm.63,37.35h-.18a22.39,22.39,0,0,0-.09-4.92c-.27-1.17-1.34-2.15-2.06-3.22-.86,1.06-2.33,2-2.46,3.17a43.26,43.26,0,0,0,0,9.38c.12,1.09,1.6,2,2.45,3,.78-1,1.93-1.9,2.25-3C142.55,291.22,142.25,289.65,142.25,288.16Z"/><path d="M189.62,363.45h-9.41V317.79c-4.27,2.82-2.58,6.78-2.74,10.23-.14,3-.49,5.29-4.06,5.49a3.81,3.81,0,0,1-.8-.21v-23h24.48v23.42c-3.38-.23-5-1.76-4.72-5.31a44.49,44.49,0,0,0,0-7.48c-.1-1.18-.93-2.3-1.42-3.44l-1.29.38Z"/><path d="M202.47,296.43c0-3.61.19-7.23-.05-10.82-.23-3.37,1.14-5,4.78-5.19v23H182.86V280.14c3.5.24,4.83,2.22,4.56,5.82a57.15,57.15,0,0,0,.1,8.48c.06.72,1.12,1.36,1.72,2,.56-.66,1.62-1.32,1.62-2,.09-14.44.07-28.88.07-43.58h9v45.53Z"/><path d="M243,280c.87,1.9,2.15,3.72,2.53,5.71.54,2.9.3,5.95.68,8.89.12.92,1.18,1.71,1.81,2.55l1.18-.52V251.31h9.62c-1.84,15.19-.66,30.18.57,45.17,4-4.66-1-11.36,5.79-16.11v22.88H242.25V280.62Z"/><path d="M161.94,250.82h10.94c-4.81,18.65,2.33,35.6,6.63,53.29h-9.44c-.62-3.73-1.24-7.53-1.86-11.32l-1.62-.17L164,304.21h-7.66C159.71,286.57,166.58,269.42,161.94,250.82Z"/><path d="M201,310.14h9.8v53.32H201Z"/><path d="M50.31,276.57q0,10,0,19.94c0,3.79-1.36,6.67-5.52,6.8-4.36.14-6.17-2.66-6.19-6.71,0-13.13-.11-26.25.06-39.38,0-3.69.61-7.55,5.83-7.51,4.23,0,5.78,2.09,5.83,7.92,0,6.31,0,12.63,0,18.94Zm-5.38-21.88c-3.08,4.75-2.63,41.22.32,44.52A246.5,246.5,0,0,0,44.93,254.69Z"/><path d="M69.34,277.16c0-6.66,0-13.32,0-20,0-3.36.63-6.3,5-6.62,4.65-.34,6.36,2.16,6.35,6.26,0,14-.15,27.94-.24,41.92,0,3.85-2.2,5.35-5.77,5.17s-5.4-2.06-5.36-5.77C69.38,291.15,69.34,284.15,69.34,277.16Zm6.43-23c-3.25,4.65-3.11,42.47,0,46Z"/><path d="M61.52,256.22c-2.4-2.11-8.74,2.15-7.7-5.29H66.58c-.39,2.11-.74,4.09-1.12,6.07-2.36,12.3-4.79,24.59-7,36.92-.26,1.47.61,3.16,1.21,5.89,3.74-4.81-.5-11.22,3.53-14.38l2.15.74c0,4.12.46,8.31-.2,12.33a7.45,7.45,0,0,1-4.28,4.86c-2.8.94-6.27-.2-6.44-3.65-.32-6.39-.51-13,.61-19.22C56.51,272.25,59.31,264.24,61.52,256.22Z"/><path d="M91.89,255.54a31.9,31.9,0,0,1-5.58-.09c-1-.18-1.83-1.24-2.73-1.91.94-.81,1.83-2.22,2.85-2.32,3.11-.31,6.26-.11,10.29-.11-3.44,15.81-10.35,30.95-8.13,47.39l1.78.41a49.73,49.73,0,0,1,1-5.6c.68-2.35-2-5.73,2.09-7,.61,2.3,1.38,4.56,1.77,6.89a24.46,24.46,0,0,1,0,5C95.1,301.8,93.62,304,89.5,304s-6.09-2.18-5.89-5.75a169.59,169.59,0,0,1,2.3-22.19C87.21,269.31,89.73,262.77,91.89,255.54Z"/></svg>