<?xml version="1.0" encoding="UTF-8"?>
<svg width="545px" height="540px" viewBox="0 0 545 540" version="1.1" xmlns="http://www.w3.org/2000/svg" xmlns:xlink="http://www.w3.org/1999/xlink">
    <!-- Generator: Sketch 64 (93537) - https://sketch.com -->
    <title>ProtestPosters</title>
    <desc>Created with Sketch.</desc>
    <g id="Page-1" stroke="none" stroke-width="1" fill="none" fill-rule="evenodd">
        <g id="v" transform="translate(-33.000000, -31.000000)" fill="#000000" fill-rule="nonzero">
            <path d="M73.8,266.5 L73.8,228.4 L103.65,228.4 C123.15,228.4 137.4,214.6 137.4,195.25 C137.4,175.6 123.15,163 103.65,163 L47.55,163 L47.55,266.5 L73.8,266.5 Z M100.2,205.15 L73.2,205.15 L73.2,186.25 L100.2,186.25 C106.2,186.25 110.25,190.15 110.25,195.7 C110.25,201.4 106.2,205.15 100.2,205.15 Z M173.838889,266.5 L173.838889,233.35 C173.838889,220.6 184.338889,216.7 193.938889,216.7 C196.038889,216.7 197.238889,216.7 199.788889,217 L199.788889,190.15 C188.688889,189.85 178.488889,194.65 172.938889,202.9 L172.938889,191.5 L148.488889,191.5 L148.488889,266.5 L173.838889,266.5 Z M245.977778,268.9 C268.777778,268.9 286.927778,252.25 286.927778,229 C286.927778,205.75 268.777778,189.1 245.977778,189.1 C223.177778,189.1 205.027778,205.75 205.027778,229 C205.027778,252.25 223.177778,268.9 245.977778,268.9 Z M245.977778,245.95 C237.127778,245.95 230.527778,238.9 230.527778,229 C230.527778,219.1 237.127778,212.05 245.977778,212.05 C254.827778,212.05 261.427778,219.1 261.427778,229 C261.427778,238.9 254.827778,245.95 245.977778,245.95 Z M343.916667,267.1 L343.916667,246.1 L334.316667,246.1 C330.716667,246.1 329.516667,244.9 329.516667,241.6 L329.516667,211.6 L343.916667,211.6 L343.916667,191.5 L328.916667,191.5 L328.916667,169.3 L310.166667,169.3 C309.566667,183.7 306.116667,191.35 291.266667,192.1 L291.266667,211.6 L304.616667,211.6 L304.616667,251.95 C304.616667,261.7 310.166667,267.1 319.466667,267.1 L343.916667,267.1 Z M392.955556,268.75 C412.605556,268.75 428.505556,256.3 432.105556,240.55 L406.755556,240.55 C404.805556,244.9 400.755556,247.9 392.955556,247.9 C385.905556,247.9 378.855556,244.15 377.055556,234.1 L432.555556,234.1 C432.705556,232.75 432.705556,231.4 432.705556,230.05 C432.705556,206.8 417.555556,188.95 393.555556,188.95 C368.955556,188.95 352.455556,206.2 352.455556,228.85 C352.455556,251.95 368.505556,268.75 392.955556,268.75 Z M408.405556,220.45 L377.505556,220.45 C379.155556,212.8 385.605556,208.6 393.255556,208.6 C400.605556,208.6 406.755556,212.65 408.405556,220.45 Z M475.444444,268.9 C496.894444,268.9 510.694444,258.85 510.694444,242.8 C510.694444,227.05 498.394444,220.6 483.394444,218.65 L476.344444,217.75 C468.694444,216.7 465.994444,215.5 465.994444,212.65 C465.994444,209.65 469.444444,207.55 475.294444,207.55 C481.144444,207.55 485.494444,209.8 486.994444,214.6 L510.244444,214.6 C507.544444,199.6 495.694444,189.1 474.994444,189.1 C454.594444,189.1 441.394444,199.75 441.394444,214.3 C441.394444,228.55 451.744444,235.6 467.344444,237.7 L474.394444,238.75 C480.994444,239.5 486.394444,240.55 486.394444,244.45 C486.394444,248.2 482.044444,250.15 476.344444,250.15 C470.794444,250.15 465.094444,247.9 462.844444,241.75 L439.594444,241.75 C441.994444,257.65 454.144444,268.9 475.444444,268.9 Z M568.133333,267.1 L568.133333,246.1 L558.533333,246.1 C554.933333,246.1 553.733333,244.9 553.733333,241.6 L553.733333,211.6 L568.133333,211.6 L568.133333,191.5 L553.133333,191.5 L553.133333,169.3 L534.383333,169.3 C533.783333,183.7 530.333333,191.35 515.483333,192.1 L515.483333,211.6 L528.833333,211.6 L528.833333,251.95 C528.833333,261.7 534.383333,267.1 543.683333,267.1 L568.133333,267.1 Z M65.25,417.5 L65.25,379.4 L95.1,379.4 C114.6,379.4 128.85,365.6 128.85,346.25 C128.85,326.6 114.6,314 95.1,314 L39,314 L39,417.5 L65.25,417.5 Z M91.65,356.15 L64.65,356.15 L64.65,337.25 L91.65,337.25 C97.65,337.25 101.7,341.15 101.7,346.7 C101.7,352.4 97.65,356.15 91.65,356.15 Z M172.338889,419.9 C195.138889,419.9 213.288889,403.25 213.288889,380 C213.288889,356.75 195.138889,340.1 172.338889,340.1 C149.538889,340.1 131.388889,356.75 131.388889,380 C131.388889,403.25 149.538889,419.9 172.338889,419.9 Z M172.338889,396.95 C163.488889,396.95 156.888889,389.9 156.888889,380 C156.888889,370.1 163.488889,363.05 172.338889,363.05 C181.188889,363.05 187.788889,370.1 187.788889,380 C187.788889,389.9 181.188889,396.95 172.338889,396.95 Z M256.027778,419.9 C277.477778,419.9 291.277778,409.85 291.277778,393.8 C291.277778,378.05 278.977778,371.6 263.977778,369.65 L256.927778,368.75 C249.277778,367.7 246.577778,366.5 246.577778,363.65 C246.577778,360.65 250.027778,358.55 255.877778,358.55 C261.727778,358.55 266.077778,360.8 267.577778,365.6 L290.827778,365.6 C288.127778,350.6 276.277778,340.1 255.577778,340.1 C235.177778,340.1 221.977778,350.75 221.977778,365.3 C221.977778,379.55 232.327778,386.6 247.927778,388.7 L254.977778,389.75 C261.577778,390.5 266.977778,391.55 266.977778,395.45 C266.977778,399.2 262.627778,401.15 256.927778,401.15 C251.377778,401.15 245.677778,398.9 243.427778,392.75 L220.177778,392.75 C222.577778,408.65 234.727778,419.9 256.027778,419.9 Z M348.716667,418.1 L348.716667,397.1 L339.116667,397.1 C335.516667,397.1 334.316667,395.9 334.316667,392.6 L334.316667,362.6 L348.716667,362.6 L348.716667,342.5 L333.716667,342.5 L333.716667,320.3 L314.966667,320.3 C314.366667,334.7 310.916667,342.35 296.066667,343.1 L296.066667,362.6 L309.416667,362.6 L309.416667,402.95 C309.416667,412.7 314.966667,418.1 324.266667,418.1 L348.716667,418.1 Z M397.755556,419.75 C417.405556,419.75 433.305556,407.3 436.905556,391.55 L411.555556,391.55 C409.605556,395.9 405.555556,398.9 397.755556,398.9 C390.705556,398.9 383.655556,395.15 381.855556,385.1 L437.355556,385.1 C437.505556,383.75 437.505556,382.4 437.505556,381.05 C437.505556,357.8 422.355556,339.95 398.355556,339.95 C373.755556,339.95 357.255556,357.2 357.255556,379.85 C357.255556,402.95 373.305556,419.75 397.755556,419.75 Z M413.205556,371.45 L382.305556,371.45 C383.955556,363.8 390.405556,359.6 398.055556,359.6 C405.405556,359.6 411.555556,363.65 413.205556,371.45 Z M475.594444,417.5 L475.594444,384.35 C475.594444,371.6 486.094444,367.7 495.694444,367.7 C497.794444,367.7 498.994444,367.7 501.544444,368 L501.544444,341.15 C490.444444,340.85 480.244444,345.65 474.694444,353.9 L474.694444,342.5 L450.244444,342.5 L450.244444,417.5 L475.594444,417.5 Z M541.583333,419.9 C563.033333,419.9 576.833333,409.85 576.833333,393.8 C576.833333,378.05 564.533333,371.6 549.533333,369.65 L542.483333,368.75 C534.833333,367.7 532.133333,366.5 532.133333,363.65 C532.133333,360.65 535.583333,358.55 541.433333,358.55 C547.283333,358.55 551.633333,360.8 553.133333,365.6 L576.383333,365.6 C573.683333,350.6 561.833333,340.1 541.133333,340.1 C520.733333,340.1 507.533333,350.75 507.533333,365.3 C507.533333,379.55 517.883333,386.6 533.483333,388.7 L540.533333,389.75 C547.133333,390.5 552.533333,391.55 552.533333,395.45 C552.533333,399.2 548.183333,401.15 542.483333,401.15 C536.933333,401.15 531.233333,398.9 528.983333,392.75 L505.733333,392.75 C508.133333,408.65 520.283333,419.9 541.583333,419.9 Z" id="ProtestPosters" transform="translate(307.916667, 291.450000) rotate(-45.000000) translate(-307.916667, -291.450000) "></path>
        </g>
    </g>
</svg>