<svg id="Layer_1" data-name="Layer 1" xmlns="http://www.w3.org/2000/svg" viewBox="0 0 841.89 595.28"><defs><style>.cls-1{fill:#fad413;}</style></defs><title>Untitled-1</title><path class="cls-1" d="M470.28,274.79a10.79,10.79,0,0,0-.52,2c-.09,1.27,0,2.55,0,3.83,0,.32-.11.74.05.95,1.57,2.05.87,4.43.87,6.65q.07,42.11,0,84.23c0,1.06-.31,2.21.75,3.09.26.23.19.91.2,1.38,0,2.88,0,5.76,0,8.64,0,2.3-1.14,2.88-3.27,1.91a7,7,0,0,0-2.09-.28c-1.44-.16-2.9.32-4.3-.79-.65-.52-2-.13-3.05-.18s-1.87.22-2.64-.68c-.27-.32-1-.21-1.59-.27-1.13-.12-2.32.3-3.34-.77-.37-.38-1.37-.15-2.09-.19-1.44-.08-3,.4-4.12-1-.21-.26-.88-.17-1.49-.27v-2.74c0-6.47,0-12.95,0-19.43,0-1,.18-2-.67-2.9-.42-.46-.27-1.51-.27-2.29q0-19.32,0-38.64c0-1.07.31-2.21-.76-3.1-.26-.21-.16-.9-.19-1.37-.08-1.3.3-2.67-.83-3.8-.3-.29-.13-1.07-.13-1.63,0-2,0-4,0-6a2.41,2.41,0,0,0-.68-1.74,5.52,5.52,0,0,0-.25,1.18q0,8.52,0,17c0,.47-.09,1.16.17,1.38,1.13,1,.77,2.19.77,3.33,0,7.52,0,15,0,22.56a3.45,3.45,0,0,0,.66,2.66,2.89,2.89,0,0,1,0,2.45,6,6,0,0,0,0,5.69,5.65,5.65,0,0,1,.2,2.11c0,5.36,0,10.72,0,16.08a8.72,8.72,0,0,0,.6,2.64,12.51,12.51,0,0,1,.22,5.18c-.16,1.31-2.43,2-3.76,1.29-.33-.17-.6-.63-.92-.65-1.19-.09-2.41.06-3.59-.11s-2.17-.73-3.28-.88c-1.29-.18-2.66.21-3.78-.89-.26-.25-.93-.08-1.4-.11-1.23-.07-2.46.23-3.59-.78-.45-.42-1.53-.11-2.32-.19-1.68-.16-3.45.51-5-.85-.43-.38-1.36-.18-2.2-.26,0-.88-.11-1.66-.11-2.44,0-5.6,0-11.2,0-16.8,0-1.07.22-2.14-.73-3.12-.42-.43-.22-1.52-.22-2.31q0-19.2,0-38.4v-2.7c-1.17.21-1,1-1,1.5,0,3.92,0,7.84,0,11.76,0,1,.23,1.94-.81,2.8a2.58,2.58,0,0,0,.1,2.56c.92.84.71,1.71.71,2.6,0,8.48,0,16.95,0,25.43,0,1.22-.34,2.52.79,3.57.3.27.15,1.07.15,1.63,0,3.27,0,6.55,0,9.83,0,.74.29,1.57-.55,2.21-.17.13.3,1.11.54,1.88h-2.8l-.45-1.94c-1.74,1-3.35,1.37-5.06.18a3,3,0,0,0-1.58-.31c-1.2,0-2.4,0-3.6,0-1,0-2.11.33-2.83-.76a.5.5,0,0,0-.44-.15c-2.14.51-3.85-1.17-5.78-1.13-1.9-3.8-1.36-7.83-1.45-11.8,0-1.21.41-2.49-.75-3.58-.26-.25.24-1.33.32-1.69a21.16,21.16,0,0,1-.49-3.11c0-7.76,0-15.51,0-23.27,0-1,.32-2-.83-2.79-.38-.25-.26-1.33-.26-2,0-5.68,0-11.36,0-17,0-.91.18-1.82-.65-2.65-.4-.4-.29-1.36-.29-2.06,0-5.68,0-11.36,0-17,0-1.07.25-2.17-.75-3.1-.34-.33-.19-1.22-.2-1.85,0-4,0-8,0-12,0-1,.53-2.28-.71-3.06.75-1.36-.31-2.61-.27-4,.13-3.59.08-7.19,0-10.79a13.88,13.88,0,0,0-.54-2.62,8.79,8.79,0,0,0,.54-2c.08-1.92,0-3.84,0-5.76,0-.24.08-.56,0-.7-1.38-1.65-.78-3.61-.93-5.45a2.16,2.16,0,0,0-.43-1.25c-.52-.5-.59-.85-.09-1.39a1,1,0,0,0,.06-.86c-.7-1.54-.07-2.85,1.58-2.92,2.15-.1,4.49-.55,6.43.11,2.41.81,4.92.25,7.11,1,1.86.62,3.73.38,5.44.94,1.09.36,2.15.68,3.28.95a2.06,2.06,0,0,1,1.59,2.08c0,1.12,0,2.24,0,3.36,0,7.2,0,14.4,0,21.6,0,1.14-.28,2.32.75,3.35.38.38.19,1.37.19,2.08q0,14,0,28.08c0,1-.27,2,.73,2.87.31.25.21,1.05.21,1.6,0,2.72.07,5.44,0,8.16a2.63,2.63,0,0,0,1.87,2.83,17,17,0,0,0,.23-1.85q0-19.56,0-39.12c0-.84.14-1.66-.82-2.3-.38-.26-.28-1.34-.28-2,0-7.28,0-14.56,0-21.84a6.37,6.37,0,0,0-.7-3.34c-.83-1.52-.36-3.36,1.38-4.74.42,1.55,1.67,1.28,2.82,1.35,1.45.08,3-.46,4.29.82.33.33,1.23.07,1.86.13,1.37.11,2.86-.44,4,.82.24.26.92.08,1.4.13,1.59.17,3.31-.49,4.75.87.3.29,1.08,0,1.64.09,1.45.11,2.91-.3,4.29.8.61.49,1.86.18,3.17.25.09,9.55,0,19.09.06,28.71h2.24V238.61c1.16.22,2.11.45,3.06.57,1.49.19,3.17-.53,4.39,1,.16.21.76.09,1.16.12,1.68.13,3.34-.25,5,.82.92.58,2.5.1,3.78.15.91,0,1.9-.3,2.63.67.18.23.73.25,1.12.27,2.56.06,5.2-.4,7.78,1.66V246c0,8.64,0,17.28,0,25.92A16.06,16.06,0,0,0,470.28,274.79ZM440,292.9h.63a22.72,22.72,0,0,0,.18-4.81c0-1.68.09-3.36,0-5s.48-3.21-.79-4.62Zm.37-24.51c-.78,3-.63,6.46.31,8.15A29,29,0,0,0,440.33,268.39ZM440,298l.54,0a4.24,4.24,0,0,0-.54-3.92Z"/><path class="cls-1" d="M471.8,243.54c1.06.24,1.83.5,2.61.6,2,.25,4-.51,6,.86.65.46,1.87.07,2.83.12s2.08-.36,2.65,1c.11.25.87.25,1.33.29,1.76.16,3.56-.36,5.24.86.64.46,1.87.06,2.83.12,1.29.08,2.63-.34,3.81.78.46.43,1.53.21,2.67.31V251q0,16.9,0,33.83c0,1-.28,2.11.72,2.65a12.84,12.84,0,0,0-.69,2.67c-.1,2.4-.08,4.8,0,7.2a9.11,9.11,0,0,0,.56,1.95,4.63,4.63,0,0,1,.35,1.56c-.18,2.07.67,4.26-.86,6.19-.27.34-.07,1.08-.07,1.64q0,37.2,0,74.39c0,.9-.45,2,.79,2.46a6.64,6.64,0,0,0,.12,6.8c-2.94-.47-5.67.76-8.45-.8-1-.59-2.66-.14-4-.2-.92,0-1.89.24-2.64-.68-.22-.27-.89-.22-1.35-.26-1-.11-2.27.38-2.85-1.09-.09-.21-.89-.16-1.37-.2-1.67-.14-3.43.42-5-.86-.45-.37-1.38-.14-2.36-.21,0-.88-.1-1.72-.1-2.56,0-6,0-12,0-18,0-.9.21-1.81-.66-2.65-.43-.42-.27-1.51-.27-2.3q0-20.16,0-40.31c0-1.14.28-2.31-.75-3.35-.42-.43-.19-1.53-.19-2.32q0-19.8,0-39.6c0-1.06.36-2.22-.73-3.1-.26-.22-.2-.9-.2-1.37q0-14,0-28.07A5.32,5.32,0,0,1,471.8,243.54Z"/><path class="cls-1" d="M353.58,225.39c1.33,0,2.38-.51,3.38.5.35.36,1.18.27,1.8.33,1.9.2,3.85-.4,5.72.84.79.52,2.19.07,3.3.14s2.38-.45,3.24.88c.19.3,1,.21,1.59.22,1.83,0,3.66,0,5.33,0,2,2.16,1.54,4.66,1.55,7.05,0,4.79,0,9.59,0,14.39,0,1-.36,2.17,1,2.91.35.2.27,1.32.27,2,0,8.71,0,17.43,0,26.14,0,.89-.45,1.95.58,2.64a1.39,1.39,0,0,1,.19.15c-2,1.76.44,3.33.26,5.11-.34,3.48-.1,7-.1,10.54,0,2.52,0,2.52,1.82,4.38-.66.82-1.18,1.53-.44,2.8a6.73,6.73,0,0,1,.08,5.83c-.07.2-.26.36-.19.27a11.31,11.31,0,0,1,.63,2.38c.05,3.84,0,7.68,0,11.52a2.3,2.3,0,0,1,0,.95c-1.92,4.1-.44,8.43-.9,12.63,2,4.58.7,9.38.9,14.07.23,5.51,0,11,0,16.55v2.51c-2-.13-3.75.78-5.42-.62-.4-.33-1.23-.17-1.85-.23-1.13-.1-2.37.38-3.22-.93-.19-.29-1.05-.13-1.6-.19-1.91-.2-4,.59-5.69-.89-.24-.21-.78-.05-1.18-.07-.77,0-1.62.19-2.14-.69a.75.75,0,0,0-.64-.23,11.11,11.11,0,0,1-6.41-1.47c0-.57,0-1.43,0-2.28-.09-1.29.38-2.65-.78-3.82-.38-.38-.17-1.37-.17-2.09,0-9.35,0-18.7,0-28.06,0-.89.43-1.94-.61-2.65-.09-.05.06-.49.13-.74s.31-.57.25-.79c-.88-2.9-.87-2.89.12-5.6a5.14,5.14,0,0,0,.12-1.67q0-13.9,0-27.82a3,3,0,0,0-.69-2.41c-.42-.45-.25-1.51-.25-2.3,0-11.43,0-22.87,0-34.3,0-1.21.4-2.52-.79-3.56-.3-.26-.15-1.07-.15-1.63,0-5,0-9.91,0-14.87a9.88,9.88,0,0,1,.61-2.16,8.85,8.85,0,0,0,.3-1.83C353.61,228,353.58,226.74,353.58,225.39Z"/><path class="cls-1" d="M351.65,368.26c-1.39-.05-2.37.35-3.28-.62-.37-.39-1.35-.21-2.06-.29-1.44-.15-2.93.38-4.29-.81-.51-.45-1.7-.1-2.57-.16s-1.64.28-2-.82c-.07-.21-.5-.39-.78-.42a19.88,19.88,0,0,1-5-.83c-1.82-.6-4-.09-6.09-1.68v-2.18c0-7.75,0-15.51,0-23.26,0-1.14.31-2.32-.73-3.35-.38-.38-.21-1.37-.21-2.08,0-9,0-18.07,0-27.1,0-1.3.38-2.65-.77-3.83-.38-.38-.17-1.37-.17-2.09,0-8.95,0-17.9,0-26.86,0-1.07.26-2.16-.73-3.11-.38-.37-.21-1.37-.21-2.08q0-12.48,0-24.95c0-1,.3-2.08-.73-2.85-.19-.14-.21-.59-.21-.9,0-5.82,0-11.65,0-17.61,1.51-.15,2.81-.73,4.11.5.4.38,1.37.2,2.08.22,1.36,0,2.72,0,4.08.05,1.79,2.11,4.23.94,6.38,1.25.38,0,.94,0,1.1.27.58.84,1.4.62,2.17.68,1.6.13,3.25-.38,4.76.85.54.43,1.7.09,2.58.12.47,0,.94.06,1.55.1.05.77.14,1.47.14,2.16,0,5,0,10.08,0,15.11,0,.87-.51,2,.64,2.6.06,0-.23.6-.29.93s-.2.84-.05,1c.53.45.76.75.06,1.27-.25.18-.21.71-.39,1-.59,1.05,1.07,1.58.55,2.7a10.39,10.39,0,0,0-.54,2.65c-.17,1,1.39,1.9.14,3,.75.55,1.11,1,.18,1.87-.21.19.45,1.27.61,2a6.2,6.2,0,0,1,0,1.43V368.26Z"/><path class="cls-1" d="M504.62,393.16v-2.81q0-8.88,0-17.75c0-.92.2-1.86-.68-2.64-.32-.28-.25-1-.26-1.59,0-1.36,0-2.72,0-4.08q0-50,0-100c0-1.13.42-2.39-.75-3.33-.22-.18-.18-.75-.18-1.14,0-2.4,0-4.8,0-7.2,0-.49.41-1,.48-1.46a8.43,8.43,0,0,0-.23-1.72l1-.76a22.7,22.7,0,0,0,2.6.61c1.21.15,2.5-.27,3.55.84.28.3,1.08.1,1.63.14,1.53.13,3-.2,4.54.8.9.59,2.49.11,3.77.17,1,0,2.06-.34,2.77.83.16.26.87.25,1.33.27,1,0,2.08,0,3.12,0a2.8,2.8,0,0,1,2.47,2.3,20,20,0,0,0,.66,2.22,2.7,2.7,0,0,0-.22,3.45,5.25,5.25,0,0,1,0,4.93c-.53,1.09-.77,1.93,0,3a3.31,3.31,0,0,1,.41,1.77q.06,3.12,0,6.24c0,.75.3,1.62-.58,2.18a.62.62,0,0,0-.08.57c1.19.93.65,2.23.65,3.34q0,56.38,0,112.76v2.8c-1.25-.22-2.33-.45-3.43-.59s-2.07.28-2.86-.76c-.17-.23-.74-.17-1.13-.2-1.42-.15-3,.46-4.16-1-.26-.32-1.22-.07-1.86-.11-1.37-.11-2.84.41-4-.83-.24-.26-.92-.09-1.4-.13-1.59-.16-3.28.46-4.75-.86C506.65,393,505.69,393.23,504.62,393.16Z"/><path class="cls-1" d="M675.66,360c0-2.82,0-5.68,0-8.55a7.59,7.59,0,0,0-.58-2.4,6.62,6.62,0,0,1,.18-5.68,1.91,1.91,0,0,0,.07-2.19,4.1,4.1,0,0,1-.59-1.9q0-15.12,0-30.22c0-.46.06-.93.1-1.54h9.81c0,2.25,0,4.39,0,6.53a2.8,2.8,0,0,0,.7,2.36c.52.5.37,1.77.4,2.7,0,1.15.65,1.32,1.94,1,0-1.8-.06-3.69,0-5.58.07-1.68-.47-3.45.84-5,.34-.39.15-1.22.23-2.17,2.39,0,4.76-.08,7.12,0,1.09.06,1.86,1.27,1.87,2.56,0,4.48,0,9,0,13.43,0,5.36,0,10.71,0,16.07,0,1.11.42,2.35-.88,3.24-.33.23-.22,1.2-.22,1.82q0,6.48,0,12.95v2.59h-4.79v-2.53c0-7.68,0-15.35,0-23,0-.74.42-1.74-.95-2.27a11.58,11.58,0,0,0-.3,1.4c-.11,1.07.08,2.08-.74,3.12-.52.66-.16,2-.25,3s.39,2.11-.72,2.84c-.11.07-.15.27-.18.42-.26,1.17.47,2.58-.83,3.5,1.32,1.07-.23,2-.18,3a33.06,33.06,0,0,1,0,3.59c-.11,1.6.47,3.29-.84,4.76-.37.42-.14,1.37-.2,2.35-.65-.06-1.45.11-1.76-.21a3.88,3.88,0,0,1-1.13-2.18c-.14-2.31,0-4.63-.07-7,0-1,.25-2-.7-2.88-.39-.36-.17-1.36-.25-2.07-.21-1.82.57-3.77-.86-5.47-.36-.43-.09-1.4-.09-2.12,0-1,0-2,0-3.34a3.58,3.58,0,0,0-2,3.38c.07,6.15,0,12.31,0,18.46C679.81,359.72,678.74,360.57,675.66,360ZM691,330.38c-.13.2-.37.41-.32.52s.4.42.47.38a2.81,2.81,0,0,0,.53-.6Z"/><path class="cls-1" d="M702.54,248.82c2.16-2.28,4.6-1.27,7-1.4v53.66a12.59,12.59,0,0,1-1.61.18c-3.52,0-7,0-10.56,0a4.91,4.91,0,0,1-4.09-2.13,6.74,6.74,0,0,1-1.55-4.24c.14-4.15.11-8.32,0-12.48a3.9,3.9,0,0,1,1.44-3.26,29.67,29.67,0,0,0,2.09-2.24c-.87-.8-1.84-1.59-2.7-2.5a2.38,2.38,0,0,1-.74-1.56,1.63,1.63,0,0,0-1-1.76,9.28,9.28,0,0,0,.87-2.37c.11-2,.07-4,0-6,0-.49-.2-1.21-.54-1.4-.87-.46-.7-1.19-.7-1.86,0-2.48,0-5,0-7.44,0-1.16.26-2.37-.82-3.31-.19-.16,0-.72,0-1.25,1.22,0,2.27-.5,3.39.54a2,2,0,0,0,2.61-.21,5.37,5.37,0,0,1,1.78-.61,50.59,50.59,0,0,1,1.19,5.36,46.47,46.47,0,0,1,0,5.28c0,4.07,0,8.15,0,12.23,0,2.7.64,3.24,3.83,3.06C702.55,265,702.53,256.91,702.54,248.82ZM699,280.27c-.82,1.56.38,3.22-1.07,4.33-.06,0,.12.37.18.57a9.87,9.87,0,0,1,.52,1.95c.08,1.51,0,3,0,4.55,0,1.72,1.33,2.62,2.39,3.52s1.53-.76,2.4-1c.11,0,.18-.25.33-.47,0-.94,0-2,0-3,0-.45-.12-1.19-.37-1.28-1.2-.44-.87-1.4-.88-2.21,0-2.29,0-4.59,0-7Z"/><path class="cls-1" d="M644.84,249.74l1.17-1.41c2,1.73,4.26.48,6.13,1,1.7,2.06,1.46,4.43,1.44,6.76,0,2,0,4,0,6a12.43,12.43,0,0,1-.53,2.41,22.85,22.85,0,0,0-.2,6.35c0,.52,1.21,1.13,2,1.35a11.58,11.58,0,0,0,2.94.05v-2.47c0-5.12,0-10.24,0-15.36a3.17,3.17,0,0,1,.6-2.43c.38-.43-.09-1.6-.19-2.6h6.27c.06.57.17,1.18.18,1.79,0,15.27,0,30.54,0,45.81,0,1.33-.69,2.65-1.12,4.22-3.53,0-7.13.21-10.69-.08a6.74,6.74,0,0,1-4.92-3.41,6.43,6.43,0,0,1-1.2-4.4c.17-1.16.48-2.55-.78-3.53a1.15,1.15,0,0,1,0-1.11c1.22-1,.72-2.33.8-3.54a17.33,17.33,0,0,0,0-2.39,6.93,6.93,0,0,1,2.23-5.38c1-1.13,1.06-1.29.06-2.34a7.32,7.32,0,0,1-2.31-5.34c.08-3.83-.17-7.68.09-11.5.19-2.67-.8-5.05-1.13-7.58C645.59,250.35,645.16,250.1,644.84,249.74Zm12.74,45.69v-17c-3.38-.47-4,.06-4,3.24,0,3.67.06,7.34,0,11A2.47,2.47,0,0,0,654.8,295,8.21,8.21,0,0,0,657.58,295.43Z"/><path class="cls-1" d="M606.67,249.7c1.52-.71,2.76-1.28,4-1.87a5.91,5.91,0,0,1,5-.06,13.45,13.45,0,0,1,3.58,2.42,6.15,6.15,0,0,1,1.68,2.83c1.66,4.33.54,8.76.83,13.12.15,2.36-.56,2.93-2.91,3h-3.13v-4.94c0-2.24,0-4.47,0-6.71,0-2.88-.57-3.34-3.65-3.08-2.32,3.78-1.19,8-1.15,12,0,1.33,1.09,2.93,2.34,4s2.37,2.25,3.49,3.44a9,9,0,0,1,.9,1.54,7.61,7.61,0,0,0,.75,1.1c2.15,2.4,3.62,5,3.43,8.41a52.21,52.21,0,0,0,0,7.91c.39,3.81-2,5.93-4.36,8.16a2.19,2.19,0,0,1-1.33.29c-1.12,0-2.24,0-3.36,0a5.43,5.43,0,0,1-4.21-1.91c-.58-.61-1.82-1.13-1.81-1.67,0-1.85-1.39-3.25-1.2-5.17.26-2.6.07-5.24.07-8h6v10.7h4c0-2.2,0-4.4,0-6.6a6.85,6.85,0,0,0-1.4-4.48c-1.21-1.68-2.63-3.14-3.86-4.77-.54-.71-1-1.5-1.46-2.25s-.84-1.47-1.26-2.13c-.88-1.4-1.53-2.9-2.37-4.28a4.76,4.76,0,0,1-.69-2.62,20.39,20.39,0,0,1,0-3.83c.23-1.27-1-2-.91-3s1.2-1.8.88-3a7.84,7.84,0,0,1,0-1.19,8.4,8.4,0,0,1,1.72-6.07A3.21,3.21,0,0,0,606.67,249.7Z"/><path class="cls-1" d="M738.54,306.4c2.55,0,4.78-.1,7,0,.94.06,1.83.73,2.79.87a4.54,4.54,0,0,1,2.79.91,6.69,6.69,0,0,1,2.6,5.11c0,4.31.14,8.63,0,12.94a5.88,5.88,0,0,1-2.78,5.2c-.11.06-.15.24-.3.49,1.36.7,2.49,1.62,2.18,3.4,2,3.91.53,8.09.92,12.13a5.19,5.19,0,0,1-.44,1.74,8.1,8.1,0,0,0-.46,1.77c-.07,1.75,0,3.51,0,5.27,0,.76-.18,1.55.64,2.18.31.24.23,1,.4,1.86h-5.06c0-.9-.1-1.6-.14-2.29-.08-1.07.23-2.16-.75-3.11-.39-.37-.2-1.37-.21-2.08,0-5.43,0-10.87,0-16.3,0-3-.62-3.51-4-3v26.59c-1.65,0-3,.65-4.31-.79a2.63,2.63,0,0,1-.8-2c0-3.76,0-7.51,0-11.27V306.4Zm5.11,14h0c0,2.24,0,4.48,0,6.72a2.25,2.25,0,0,0,1.94,2,2.33,2.33,0,0,0,2-1.93,13.8,13.8,0,0,0,0-1.44v-8.87c0-1.12,0-2.25,0-3.36a2.55,2.55,0,0,0-1.95-2.28c-.87,0-1.89,1.07-2,2.2,0,.4,0,.8,0,1.2Z"/><path class="cls-1" d="M671.92,269.27c2.74-.63,5.56.85,7.86-1.59V248.46a64,64,0,0,1,6.79-.14c0,.84.12,1.45.12,2.07q0,23.85,0,47.7c0,2.7-.47,3.16-3.2,3.18-2.32,0-4.64,0-7,0a7,7,0,0,1-6-2.77,6.87,6.87,0,0,1-1.81-4.34c0-1.53.47-3.16-.84-4.5-.25-.26-.09-.93-.09-1.41,0-2.63,0-5.27,0-7.9,0-.85-.22-1.76.71-2.39.23-.16.27-.75.23-1.12a8,8,0,0,1,2.85-7A2,2,0,0,0,671.92,269.27Zm3.83,5.08c.23,1.87-2.62,3.38,0,5.37-1.68,1.06-.9,2.61-1,4a39.45,39.45,0,0,0,0,4.07c0,1.37-.36,2.83.81,4-1.35,1.43.69,2.29.39,3.47h3.9c0-5.1,0-10,0-15,0-.29-.14-.78-.32-.84-1.33-.44-.86-1.53-.92-2.41s0-1.71,0-2.61Z"/><path class="cls-1" d="M600.4,267.86l-5.66.86a8.58,8.58,0,0,1-.19-1.43c0-3.44,0-6.88,0-10.31a13.83,13.83,0,0,1,0-1.44c.14-1.18-.76-1.75-1.52-2.16-1-.55-1.68.55-2.06,1.15-1.63,2.51-1.36,5.37-1.09,8.18,0,.31.48.58.84,1-.69.85-1.65,1.78-.21,2.85.23.17.22.76.18,1.14a4,4,0,0,0,1.7,3.85c1.64,1.39,2.93,3.21,4.61,4.54,1.87,1.49,2.11,3.86,3.51,5.56.24.3.11.93.11,1.41,0,3.44-.08,6.88,0,10.31.05,1.54-.94,2.57-1.44,3.82-1,2.36-2.86,3.26-5.38,3.15-2.23-.1-4.47,0-6.7,0-1.57-1.9-2.61-3.86-2.38-6.37a40.45,40.45,0,0,0,0-4.8c0-1.14.31-2.32-.76-3.33-.38-.36-.15-1.37-.21-2.27h5.94c0,2.6,0,5.14,0,7.67s.92,3.24,3.65,3c.06-.59.15-1.2.18-1.81a8,8,0,0,1,.78-3.82c.43-.76-.79-2.28-.7-3.41a5.7,5.7,0,0,0-2.08-4.71c-2-2-4-3.95-5.89-6a4.25,4.25,0,0,1-.88-1.53,17.87,17.87,0,0,1-.95-3.26,31.07,31.07,0,0,1-.06-3.35,1.74,1.74,0,0,0-.26-.89c-1.38-2.12-1.37-2.44,0-4.47a1.13,1.13,0,0,0-.21-1.65c-1.16-1.16-1.07-2,0-3.31a2.37,2.37,0,0,0,.49-1.45c-.11-2.78,1.86-4.06,3.81-5.35,2.6-1.71,5.51-.71,8.28-.93a.67.67,0,0,1,.47.09c2,1.7,4,3.56,4.2,6.31.23,4.15.05,8.31,0,12.47A2.72,2.72,0,0,1,600.4,267.86Z"/><path class="cls-1" d="M621.89,307.36c1.66,0,3.17-.05,4.67,0a2.23,2.23,0,0,1,2,2.16c0,1.36,0,2.72,0,4.08,0,1-.3,2.07.74,2.85.22.17.18.74.21,1.13.07,1.08-.16,2.13.76,3.11.42.44.12,1.53.23,2.31a2.15,2.15,0,0,0,.68,1.24c.9-1.76.49-3.58.56-5.34.07-1.92,0-3.84,0-5.76v-5.64h3.7v52.67H632c-.06-.64-.11-1.25-.16-1.86-.07-.82.27-1.77-.92-2.2-.24-.09-.32-.84-.35-1.3,0-.95,0-1.92,0-2.87a24.07,24.07,0,0,0-1.59-5.9,7.73,7.73,0,0,1-.33-2.07c-.23-1.82.49-3.71-.83-5.49-.5-.66-.08-2-.08-3.33a3.16,3.16,0,0,0-2,3.09c.06,6.39,0,12.79,0,19.18v2.73h-3.84Z"/><path class="cls-1" d="M776.88,306.4c3.4,0,6.58,0,9.76,0,1.14,0,1.5,1,2.22,1.54a4.2,4.2,0,0,1,1.86,4.24,2.42,2.42,0,0,0,.67,2.4c.31.27.25,1,.25,1.58q0,3.72,0,7.44a10.76,10.76,0,0,1-2.24,6.58,1.56,1.56,0,0,0-.14,2.23,8.59,8.59,0,0,1,1.47,5c-.12,6.55-.07,13.11,0,19.66a16.87,16.87,0,0,0,.64,3.07,12.71,12.71,0,0,1-4.53.06c-2.24-6.6-.88-13.29-1.25-19.87,0-.56,0-1.12,0-1.68,0-3,0-3-2.3-5.22a2.77,2.77,0,0,0-1.57,3.06c.1,1.43,0,2.87,0,4.31,0,1-.32,2.09.75,2.85.19.13.19.59.19.9,0,2.48.6,5.16-.15,7.38-.91,2.73-.53,5.42-.92,8.28-.81,0-1.58.13-2.35.12a2.41,2.41,0,0,1-2.47-2.26,7.51,7.51,0,0,1,0-1V308.17C776.78,307.7,776.83,307.22,776.88,306.4Zm8.69,21.36c0-4.71,0-9.49-.05-14.27a3.27,3.27,0,0,0-1.06-2,1.45,1.45,0,0,0-1.46-.07,3.87,3.87,0,0,0-1.2,2.13c-.15,2.46-.07,5,0,7.42a1.5,1.5,0,0,0,.35,1.07c.66.52.12.77,0,1.27a11.67,11.67,0,0,0-.28,3.95c.06.63.81,1.2,1.15,1.67Z"/><path class="cls-1" d="M603.79,309.82c1.66-1.66,3.72-1.55,5.48-2.24a4.68,4.68,0,0,1,5.59,1.23c1.15,1.35,2,2.51,1.78,4.32a28.77,28.77,0,0,0,0,3.35c0,.4-.13.94.08,1.18,1.42,1.65.8,3.62.85,5.45.08,3.35.06,6.71,0,10.07a15.07,15.07,0,0,1-.58,2.73,8.16,8.16,0,0,1,.57,2.11c.08,3.19,0,6.39,0,9.58,0,.32.11.75-.05.95-1.46,1.81-.81,3.93-.87,5.92a3.87,3.87,0,0,1-1,2.48,13.29,13.29,0,0,1-4.39,3.14,2.69,2.69,0,0,1-3.47-.44,1.38,1.38,0,0,0-.78-.43c-2.49-.33-2.62-2.55-3.24-4.24-.38-1,.21-2.34-.87-3.29-.26-.23-.15-.91-.15-1.39q0-18,0-36a2.78,2.78,0,0,1,.6-2.19C603.8,311.62,603.67,310.52,603.79,309.82Zm7.48,45.42c.19-.25.27-.31.28-.38.46-2.1-.62-4.45,1-6.37a.47.47,0,0,0,0-.46c-1.21-1.31-.84-2.58,0-3.89a.78.78,0,0,0,0-.7c-.7-1.27-1.58-2.52-.16-3.88,0,0-.25-.21-.28-.34a2.58,2.58,0,0,1-.09-1,13.74,13.74,0,0,0,.53-1.92,39.47,39.47,0,0,0,0-4.07c-.05-1.22.33-2.46-.76-3.59-.37-.38.11-1.6.2-2.43a3.17,3.17,0,0,0,.14-.89,13.64,13.64,0,0,1-.5-2.2c-.06-3,0-5.92,0-8.88,0-.61-.12-1.22-.18-1.8-3-.3-3.65.2-3.65,2.95,0,9.59,0,19.19-.06,28.79,0,1.25,1.37,2.43.18,3.71,0,0,.17.23.26.35a3.42,3.42,0,0,1,.08,3.89,1.24,1.24,0,0,0,0,.93c.24.71.57,1.39.92,2.23Z"/><path class="cls-1" d="M588.62,353.81c1.33,1.68,2.9,1.77,4.92,1.32V334.36h4.8c.83.92-.24,2.47,1.07,3.2-1,1.53.85,2.91.24,4.42-.24.61-.45,1.25-.71,2,.81,1,1.24,2.09.08,3.38a2.72,2.72,0,0,0-.31,1.57c-.05,1.2-.07,2.4,0,3.6a6.62,6.62,0,0,1-2.85,6c-1.29.93-2.67,1.91-4.49,1.85-1.65-.06-2.75-1.65-4.5-1.46-.28,0-.83-.58-.94-1a28.77,28.77,0,0,1-1.1-4.91c-.19-1.9,0-3.83-.05-5.75,0-.77.14-1.53-.62-2.18a1.65,1.65,0,0,1,.08-1.62c.63-.65.81-1.52.36-1.91-1.06-.93-.76-2-.76-3.09q0-10.9,0-21.83c0-.9-.32-1.9.68-2.63a1.57,1.57,0,0,0,.23-1.35c-.44-1.49.52-2.68,1.15-3.67a4.37,4.37,0,0,1,3.1-1.52c1.72-.1,3.66-.71,5.18.79.05,0,.16,0,.23.06,3.33.78,3.33.78,3.33,4s0,6.56,0,9.84c0,1.7-.32,3.46.9,5,.11.13,0,.46-.07.85h-4.86c-.05-.72-.12-1.41-.13-2.11,0-3.52,0-7,0-10.56,0-2.67-.74-3.21-3.84-2.71v2.54c0,9.51,0,19,0,28.55,0,.95.46,2.1-.83,2.75-.22.11-.25.73-.25,1.11C588.61,349.7,588.62,351.86,588.62,353.81Z"/><path class="cls-1" d="M731.28,307.33c1.4,1.86,2.67,3.49,2.5,5.87-.11,1.51-.46,3.14.8,4.51.29.32.11,1.08.11,1.64q0,9.82,0,19.66a2.86,2.86,0,0,1-.67,2.42c-.35.34-.27,1.19-.27,1.82,0,2.47,0,4.95,0,7.43,0,2.93-.11,2.87-1.53,5.6a6.12,6.12,0,0,1-3.44,2.92,10.28,10.28,0,0,0-1.44.89l-5.43-2.17c-.41-.95.21-2.28-1.11-3.13-.42-.27-.1-1.66-.17-2.53-.09-1.14.35-2.36-.76-3.34-.3-.26-.19-1.06-.19-1.61,0-6.72,0-13.43,0-20.15a7.81,7.81,0,0,1,.51-2c.06-.2.25-.47.18-.58-1.5-2.26-.4-4.78-.67-7.16-.05-.5.82-1.22.66-1.56-.8-1.74.63-3.23.32-4.94-.27-1.5.75-2.45,2.26-2.64.68-.09,1.35,0,1.92-.67.16-.19,1.28.57,2,.59s1.58-.74,1.71-.59C729.55,308.89,730.3,308.18,731.28,307.33Zm-5.71,5.09c0,2.77,0,5.23,0,7.7,0,.63.09,1.49-.26,1.83-.92.87-.67,1.89-.68,2.87q0,11.51,0,23c0,2.56-.34,5.18,1.5,7.38h2.42c.43-1.35,1.14-2.57,1.15-3.8.1-9.19.07-18.37,0-27.55a9.12,9.12,0,0,0-.55-2.14c.14-.6.66-1.74.42-1.93-1.28-1-.69-2.36-.78-3.55s0-2.5,0-3.81Z"/><path class="cls-1" d="M773.68,300.31v-5.77c2.21-.05,4.36-.69,6.53.56,1.28-.52,1.6-1.61,1.56-3.11-.1-4.15,0-8.3,0-12.7H776v-5.9h5.53c.08-.92.2-1.6.2-2.28,0-5.2-.05-10.4,0-15.6a2.92,2.92,0,0,0-1.54-2.95c-2.44,1.33-4.93.48-7.5.67v-5.44c1.61-.53,10.81-.7,15.07-.24v2.5c0,6.64,0,13.28,0,19.92,0,.91-.24,1.88.71,2.64.31.24.23,1,.23,1.59q0,11.52,0,23c0,2.38-.72,3.06-3.13,3.07Z"/><path class="cls-1" d="M713.89,247.61a9.5,9.5,0,0,0,2.16.67c2.64.07,5.28.06,7.91,0a4,4,0,0,0,1.68-.56,2,2,0,0,1,3.11,1.58,11.35,11.35,0,0,1,0,1.43v47c0,.77-.07,1.55-.12,2.6-2.59,0-5-.05-7.5,0-.87,0-1.95-.49-2.6.64-.06.11-.43.11-.63,0-1.69-.5-1.77-.5-2.73.18-1.63-.66-1.73-2-1.61-3.49a2.23,2.23,0,0,1,2.35-2.34c2.14-.05,4.29,0,6.64,0,0-1,.12-1.89.12-2.74,0-2.32,0-4.64,0-6.95,0-1.29.32-2.62-.78-3.81-.43-.46-.2-1.52-.29-2.55H716v-5h5.57v-21H713C712.22,249.67,712.32,249.15,713.89,247.61Z"/><path class="cls-1" d="M760.57,359.13c-2.47-.32-3.62-2-2.52-3.51a3.73,3.73,0,0,0,.64-2.41c0-4.56,0-9.12,0-13.67,0-.84-.19-1.67.61-2.44.4-.38.32-1.34.32-2,0-4.64,0-9.28,0-13.91,0-1.07-.32-2.2.72-3.11.31-.27.21-1.06.22-1.6,0-2.24,0-4.48,0-6.72,0-.7.08-1.4.12-2.24h8.81c.06.63.17,1.24.18,1.85,0,3,0,5.91,0,8.87a14.43,14.43,0,0,0,.56,2.17,2.94,2.94,0,0,1-.15.95,1.93,1.93,0,0,0-.06.78c.81,2,.82,2.95-.06,5.26,0,.14-.2.36-.15.42,1.69,2,.38,4.45.79,6.64.19,1-.52,2.26.73,3-.8,1.21.27,2.29.26,3.46,0,5.6,0,11.19,0,16.79a12.51,12.51,0,0,1-.13,1.31h-3.69c-.06-.72-.11-1.42-.16-2.11-.08-1,.15-1.95-.71-2.88-.46-.5-.18-1.67-.26-2.54a2.36,2.36,0,0,0-2.51-2.23c-1.43,0-2.73.85-2.54,2.12C762,354.09,760.14,356.32,760.57,359.13Zm3.33-27.3a2.2,2.2,0,0,0-1.39,2.42c.06,3.35,0,6.69,0,10,0,.6.12,1.21.2,1.93a15.32,15.32,0,0,0,2.06,0c1.25-.18,2.4-1.83,1.7-2.49-1-1-.73-2-.75-3.07,0-2.87.15-5.75-.06-8.6-.19-2.51-.79-5-1.22-7.48a2,2,0,0,0-.36-.08c-.85,1.25.6,3.39-1.55,4.12l1.38,1.14L762.53,331Z"/><path class="cls-1" d="M706.69,334.43V337c0,6.55-.05,13.11,0,19.65a4.16,4.16,0,0,1-1.13,3.29l-3.69-1c-.42-1.54-.57-48-.07-51.55,2.47,0,5,0,7.52,0a9.39,9.39,0,0,1,4,.79c1.42.64,1.45,2,2.27,2.86s-.31,2.61.9,3.69c0,0-.29.31-.34.51-.14.5-.49,1.19-.29,1.51,1.75,2.82.43,5.88.79,8.79-1.42,1.53-.84,3.42-.9,5.18a1.84,1.84,0,0,1-1.07,1.88c-.59.3-1,1-1.44,1.52-1.39,1.37-2.9,1.51-4.81.47a2.52,2.52,0,0,0-.88-.28A3.31,3.31,0,0,0,706.69,334.43Zm.15-22V329h3.7V312.43Z"/><path class="cls-1" d="M655.82,307.36c4.79,0,9.26-.05,13.72.05.66,0,1.31.68,2.14,1.14-1,1.09-1.54,2.16-.09,3.08-.71,1.53-1.91,1.73-3.35,1.66-2.06-.09-4.12,0-6.34,0V329h6.71v6l-4.15.12c-1.67.05-2.69.91-2.71,2.52,0,5.43,0,10.86,0,16.59h8.79v6h-3.8c-2.8,0-5.6,0-8.4,0a2.41,2.41,0,0,1-2.51-2.47c0-.32,0-.64,0-1V307.36Z"/><path class="cls-1" d="M634.62,257.63c-1.52-1-.53-2.73-1.16-4.29h-8.84c0-1.39,0-2.55,0-3.72a2,2,0,0,1,1.78-2.12,66.89,66.89,0,0,1,6.94,0c1,1.31,2.47.84,3.76.82a25.77,25.77,0,0,0,3.41-.5V299H625.94v-3.67c1.85,0,3.67-.08,5.48,0a3.05,3.05,0,0,0,3-1.22,17.26,17.26,0,0,1-.66-3.07c-.06-3.83,0-7.66,0-11.79h-6.17a10.51,10.51,0,0,1,.52-1.94c.68-1.26.71-1.24-.3-2.68l1.24-1.33c1.34,1.37,2.9.83,4.71.74,0-1.61-.07-3.11,0-4.6a15.1,15.1,0,0,1,.56-2.42c0-.2.19-.47.11-.59-1.45-2.28-.4-4.78-.63-7.17C633.75,258.81,634.3,258.25,634.62,257.63Z"/><path class="cls-1" d="M791.66,254.35c0-1.9,0-3.41,0-4.9a2.19,2.19,0,0,1,2.12-2.08c1.91-.05,3.84,0,5.76,0a1.81,1.81,0,0,1,1.11.31c1.07,1,1.92.6,3.14.06s2.92-.36,4.36-.49c.58,2,.82,45.52.32,53a44.4,44.4,0,0,1-6.72,0V254.35Z"/><path class="cls-1" d="M751.92,301.26v-5.85l3-.06c2-.07,2.82-.9,2.82-2.89q0-20.62,0-41.24a13.19,13.19,0,0,0-.72-2.81c1.67-2.08,4.24-.63,6.74-1.16v46.94c1.35.13,2.91-.17,3.57.46,1,1,1.29-.08,2.11-.23.39.53,1.11,1.09,1.2,1.73a9.85,9.85,0,0,1-.13,3.79,2,2,0,0,1-2,1.35C763.05,301.24,757.62,301.26,751.92,301.26Z"/><path class="cls-1" d="M749.52,299.76a3,3,0,0,1-3,1.54c-4.32-.08-8.64,0-13,0-.54,0-1.09-.05-1.78-.09v-5.75h4.79c0-8.05,0-15.85,0-23.65V248.44h6c0,.87.09,1.72.09,2.56v40.07c0,.56,0,1.12,0,1.68.08,2.09,2,3.4,3.72,2.35.83-.51,1.3-1,2.22-.27a2.15,2.15,0,0,1,.75,2.92C748.68,298.7,749.09,299.16,749.52,299.76Z"/><path class="cls-1" d="M795.56,307.47h5c.28,3.26,1.71,6.26,1.17,9.53a5.14,5.14,0,0,0,.14,1.26h2.36c.87-2.85,1.81-5.58,1.55-8.61-.17-1.88.91-2.4,3.75-2.09-.28,2.1.76,4.28-.81,6.34-.35.46-.07,1.4-.13,2.11-.12,1.29.35,2.61-.77,3.83-.45.49-.13,1.68-.19,2.55-.08,1.14.34,2.36-.78,3.34-.3.25-.12,1.06-.18,1.61-.19,1.91.57,3.94-.88,5.7-.28.34-.07,1.09-.07,1.64,0,2.88,0,5.76,0,8.63a2.61,2.61,0,0,1-.67,2.13c-.48.5-.15,1.85,0,2.8.06.47.67.89.67,1.34.07,3.1,0,6.21,0,9.31-.78.23-1.61.22-1.9.61-.44.63-1,1.07-1.53.7a5.08,5.08,0,0,1-1.47-2,4.16,4.16,0,0,1-.05-1.66c0-6.15,0-12.3,0-18.45,0-1.14.18-2.25-.71-3.36-.52-.66-.15-2-.25-3s.48-2.24-1-2.9c-.3-.14-.21-1.17-.27-1.79-.14-1.53.16-3-.78-4.54-.61-1-.13-2.65-.19-4-.05-.9.26-1.87-.69-2.63-.31-.25-.14-1.06-.27-1.59a16.93,16.93,0,0,1-.65-2.14C795.76,310.68,795.7,309.2,795.56,307.47Z"/><path class="cls-1" d="M647.37,360.24H645c-.06-.64-.16-1.26-.17-1.87,0-2.55,0-5.11,0-7.67,0-.91.18-1.81-.68-2.64-.43-.42-.25-1.52-.26-2.3q0-15.22,0-30.44v-2.85l-5-.29v-4.65h14.59v4.66l-1.94.12c-2.18.1-2.89.82-2.89,3.06q0,12.7,0,25.41c0,4.79-.12,9.59.06,14.37C648.75,357,647.86,358.41,647.37,360.24Z"/><path class="cls-1" d="M440,292.9V278.45c1.27,1.41.7,3.07.79,4.62s.06,3.35,0,5a22.72,22.72,0,0,1-.18,4.81Z"/><path class="cls-1" d="M440.33,268.39a29,29,0,0,1,.31,8.15C439.7,274.85,439.55,271.43,440.33,268.39Z"/><path class="cls-1" d="M440,298v-3.95a4.24,4.24,0,0,1,.54,3.92Z"/><path class="cls-1" d="M691,330.38l.68.3a2.81,2.81,0,0,1-.53.6c-.07,0-.4-.21-.47-.38S690.88,330.58,691,330.38Z"/><path class="cls-1" d="M699,280.27h3.5c0,2.38,0,4.68,0,7,0,.81-.32,1.77.88,2.21.25.09.34.83.37,1.28.05,1,0,2.08,0,3-.15.22-.22.44-.33.47-.87.21-1.45,1.77-2.4,1s-2.41-1.8-2.39-3.52c0-1.52.06-3,0-4.55a9.87,9.87,0,0,0-.52-1.95c-.06-.2-.24-.53-.18-.57C699.42,283.49,698.22,281.83,699,280.27Z"/><path class="cls-1" d="M657.58,295.43a8.21,8.21,0,0,1-2.78-.39,2.47,2.47,0,0,1-1.26-2.34c.1-3.66,0-7.33,0-11,0-3.18.62-3.71,4-3.24Z"/><path class="cls-1" d="M743.65,320.37v-5.76c0-.4,0-.8,0-1.2.13-1.13,1.15-2.22,2-2.2a2.55,2.55,0,0,1,1.95,2.28c.06,1.11,0,2.24,0,3.36v8.87a13.8,13.8,0,0,1,0,1.44,2.33,2.33,0,0,1-2,1.93,2.25,2.25,0,0,1-1.94-2c-.06-2.24,0-4.48,0-6.72Z"/><path class="cls-1" d="M675.75,274.35h2.79c0,.9,0,1.76,0,2.61s-.41,2,.92,2.41c.18.06.32.55.32.84,0,4.94,0,9.88,0,15h-3.9c.3-1.18-1.74-2-.39-3.47-1.17-1.14-.78-2.6-.81-4a39.45,39.45,0,0,1,0-4.07c.1-1.35-.68-2.9,1-4C673.13,277.73,676,276.22,675.75,274.35Z"/><path class="cls-1" d="M785.57,327.76,783,329c-.34-.47-1.09-1-1.15-1.67a11.67,11.67,0,0,1,.28-3.95c.13-.5.67-.75,0-1.27a1.5,1.5,0,0,1-.35-1.07c0-2.47-.11-5,0-7.42a3.87,3.87,0,0,1,1.2-2.13,1.45,1.45,0,0,1,1.46.07,3.27,3.27,0,0,1,1.06,2C785.61,318.27,785.57,323.05,785.57,327.76Z"/><path class="cls-1" d="M611.27,355.24l-2.08.1c-.35-.84-.68-1.52-.92-2.23a1.24,1.24,0,0,1,0-.93,3.42,3.42,0,0,0-.08-3.89c-.09-.12-.28-.33-.26-.35,1.19-1.28-.2-2.46-.18-3.71.1-9.6,0-19.2.06-28.79,0-2.75.61-3.25,3.65-2.95.06.58.17,1.19.18,1.8,0,3,0,5.92,0,8.88a13.64,13.64,0,0,0,.5,2.2,3.17,3.17,0,0,1-.14.89c-.09.83-.57,2.05-.2,2.43,1.09,1.13.71,2.37.76,3.59a39.47,39.47,0,0,1,0,4.07,13.74,13.74,0,0,1-.53,1.92,2.58,2.58,0,0,0,.09,1c0,.13.29.33.28.34-1.42,1.36-.54,2.61.16,3.88a.78.78,0,0,1,0,.7c-.85,1.31-1.22,2.58,0,3.89a.47.47,0,0,1,0,.46c-1.65,1.92-.57,4.27-1,6.37C611.54,354.93,611.46,355,611.27,355.24Z"/><path class="cls-1" d="M725.57,312.42h3.21c0,1.31-.08,2.56,0,3.81s-.5,2.52.78,3.55c.24.19-.28,1.33-.42,1.93a9.12,9.12,0,0,1,.55,2.14c0,9.18.07,18.36,0,27.55,0,1.23-.72,2.45-1.15,3.8h-2.42c-1.84-2.2-1.5-4.82-1.5-7.38q0-11.49,0-23c0-1-.24-2,.68-2.87.35-.34.26-1.2.26-1.83C725.59,317.65,725.57,315.19,725.57,312.42Z"/><path class="cls-1" d="M763.9,331.83l-1.37-.87,1.41-1.22-1.38-1.14c2.15-.73.7-2.87,1.55-4.12a2,2,0,0,1,.36.08c.43,2.49,1,5,1.22,7.48.21,2.85,0,5.73.06,8.6,0,1.05-.28,2.11.75,3.07.7.66-.45,2.31-1.7,2.49a15.32,15.32,0,0,1-2.06,0c-.08-.72-.19-1.33-.2-1.93,0-3.35,0-6.69,0-10A2.2,2.2,0,0,1,763.9,331.83Z"/><path class="cls-1" d="M706.84,312.43h3.7V329h-3.7Z"/></svg>