<svg width="27" height="24" fill="none" xmlns="http://www.w3.org/2000/svg"><path d="M25.513.004H1.487C1.093.004.714.142.436.387A1.233 1.233 0 000 1.31v21.116c0 .347.157.68.436.924.278.246.657.383 1.051.383h12.948V14.54h-3.532v-3.575h3.532v-2.65c0-3.065 2.126-4.736 5.228-4.736 1.05-.004 2.1.044 3.143.143v3.203H20.65c-1.69 0-2.022.71-2.022 1.747v2.288h4.067l-.529 3.575h-3.485v9.194h6.83c.196 0 .39-.034.57-.1.18-.065.344-.161.482-.283a1.31 1.31 0 00.323-.424c.075-.159.113-.329.113-.5V1.302a1.235 1.235 0 00-.44-.919 1.598 1.598 0 00-1.047-.38z" fill="#000"/></svg>