<?xml version="1.0" encoding="UTF-8"?>
<svg width="213px" height="186px" viewBox="0 0 213 186" version="1.1" xmlns="http://www.w3.org/2000/svg" xmlns:xlink="http://www.w3.org/1999/xlink">
    <!-- Generator: Sketch 64 (93537) - https://sketch.com -->
    <title>Group</title>
    <desc>Created with Sketch.</desc>
    <g id="Page-1" stroke="none" stroke-width="1" fill="none" fill-rule="evenodd">
        <g id="v-" transform="translate(-329.000000, -132.000000)">
            <g id="Group" transform="translate(46.000000, 132.000000)">
                <rect id="Rectangle" x="0" y="0" width="772" height="186"></rect>
                <g id="y" transform="translate(283.000000, 0.000000)" fill="#FAD413" fill-rule="nonzero">
                    <path d="M149.28,54.79 C149.043079,55.4384947 148.868947,56.1082321 148.76,56.79 C148.67,58.06 148.76,59.34 148.76,60.62 C148.76,60.94 148.65,61.36 148.81,61.57 C150.38,63.62 149.68,66 149.68,68.22 C149.726667,96.2933333 149.726667,124.37 149.68,152.45 C149.68,153.51 149.37,154.66 150.43,155.54 C150.69,155.77 150.62,156.45 150.63,156.92 C150.63,159.8 150.63,162.68 150.63,165.56 C150.63,167.86 149.49,168.44 147.36,167.47 C146.681468,167.271669 145.976808,167.177264 145.27,167.19 C143.83,167.03 142.37,167.51 140.97,166.4 C140.32,165.88 138.97,166.27 137.92,166.22 C136.87,166.17 136.05,166.44 135.28,165.54 C135.01,165.22 134.28,165.33 133.69,165.27 C132.56,165.15 131.37,165.57 130.35,164.5 C129.98,164.12 128.98,164.35 128.26,164.31 C126.82,164.23 125.26,164.71 124.14,163.31 C123.93,163.05 123.26,163.14 122.65,163.04 L122.65,160.3 C122.65,153.83 122.65,147.35 122.65,140.87 C122.65,139.87 122.83,138.87 121.98,137.97 C121.56,137.51 121.71,136.46 121.71,135.68 C121.71,122.8 121.71,109.92 121.71,97.04 C121.71,95.97 122.02,94.83 120.95,93.94 C120.69,93.73 120.79,93.04 120.76,92.57 C120.68,91.27 121.06,89.9 119.93,88.77 C119.63,88.48 119.8,87.7 119.8,87.14 C119.8,85.14 119.8,83.14 119.8,81.14 C119.816494,80.4921645 119.571389,79.8649845 119.12,79.4 C118.993814,79.7830204 118.90998,80.1787155 118.87,80.58 C118.87,86.26 118.87,91.9266667 118.87,97.58 C118.87,98.05 118.78,98.74 119.04,98.96 C120.17,99.96 119.81,101.15 119.81,102.29 C119.81,109.81 119.81,117.29 119.81,124.85 C119.653274,125.789762 119.892149,126.752501 120.47,127.51 C120.83329,128.286265 120.83329,129.183735 120.47,129.96 C119.513481,131.73607 119.513481,133.87393 120.47,135.65 C120.66917,136.33442 120.73703,137.050348 120.67,137.76 C120.67,143.12 120.67,148.48 120.67,153.84 C120.731339,154.74587 120.933779,155.636603 121.27,156.48 C121.704256,158.172359 121.779199,159.936915 121.49,161.66 C121.33,162.97 119.06,163.66 117.73,162.95 C117.4,162.78 117.13,162.32 116.81,162.3 C115.62,162.21 114.4,162.36 113.22,162.19 C112.04,162.02 111.05,161.46 109.94,161.31 C108.65,161.13 107.28,161.52 106.16,160.42 C105.9,160.17 105.23,160.34 104.76,160.31 C103.53,160.24 102.3,160.54 101.17,159.53 C100.72,159.11 99.64,159.42 98.85,159.34 C97.17,159.18 95.4,159.85 93.85,158.49 C93.42,158.11 92.49,158.31 91.65,158.23 C91.65,157.35 91.54,156.57 91.54,155.79 C91.54,150.19 91.54,144.59 91.54,138.99 C91.54,137.92 91.76,136.85 90.81,135.87 C90.39,135.44 90.59,134.35 90.59,133.56 C90.59,120.76 90.59,107.96 90.59,95.16 L90.59,92.46 C89.42,92.67 89.59,93.46 89.59,93.96 C89.59,97.88 89.59,101.8 89.59,105.72 C89.59,106.72 89.82,107.66 88.78,108.52 C88.3573661,109.33077 88.395409,110.304668 88.88,111.08 C89.8,111.92 89.59,112.79 89.59,113.68 C89.59,122.16 89.59,130.63 89.59,139.11 C89.59,140.33 89.25,141.63 90.38,142.68 C90.68,142.95 90.53,143.75 90.53,144.31 C90.53,147.58 90.53,150.86 90.53,154.14 C90.53,154.88 90.82,155.71 89.98,156.35 C89.81,156.48 90.28,157.46 90.52,158.23 L87.72,158.23 L87.27,156.29 C85.53,157.29 83.92,157.66 82.21,156.47 C81.7214207,156.224624 81.1750752,156.117429 80.63,156.16 C79.43,156.16 78.23,156.16 77.03,156.16 C76.03,156.16 74.92,156.49 74.2,155.4 C74.086906,155.280714 73.9224066,155.224635 73.76,155.25 C71.62,155.76 69.91,154.08 67.98,154.12 C66.08,150.32 66.62,146.29 66.53,142.32 C66.53,141.11 66.94,139.83 65.78,138.74 C65.52,138.49 66.02,137.41 66.1,137.05 C65.8596642,136.02694 65.6958777,134.987396 65.61,133.94 C65.61,126.18 65.61,118.43 65.61,110.67 C65.61,109.67 65.93,108.67 64.78,107.88 C64.4,107.63 64.52,106.55 64.52,105.88 C64.52,100.2 64.52,94.52 64.52,88.88 C64.52,87.97 64.7,87.06 63.87,86.23 C63.47,85.83 63.58,84.87 63.58,84.17 C63.58,78.49 63.58,72.81 63.58,67.17 C63.58,66.1 63.83,65 62.83,64.07 C62.49,63.74 62.64,62.85 62.63,62.22 C62.63,58.22 62.63,54.22 62.63,50.22 C62.63,49.22 63.16,47.94 61.92,47.16 C62.67,45.8 61.61,44.55 61.65,43.16 C61.78,39.57 61.73,35.97 61.65,32.37 C61.5547742,31.4813176 61.3739345,30.6039104 61.11,29.75 C61.368205,29.1069492 61.5494635,28.4356214 61.65,27.75 C61.73,25.83 61.65,23.91 61.65,21.99 C61.65,21.75 61.73,21.43 61.65,21.29 C60.27,19.64 60.87,17.68 60.72,15.84 C60.710819,15.3886351 60.5604416,14.9514913 60.29,14.59 C59.77,14.09 59.7,13.74 60.2,13.2 C60.3488836,12.9371149 60.3709373,12.6210121 60.26,12.34 C59.56,10.8 60.19,9.49 61.84,9.42 C63.99,9.32 66.33,8.87 68.27,9.53 C70.68,10.34 73.19,9.78 75.38,10.53 C77.24,11.15 79.11,10.91 80.82,11.47 C81.91,11.83 82.97,12.15 84.1,12.42 C85.0590911,12.6440786 85.725391,13.5157163 85.69,14.5 C85.69,15.62 85.69,16.74 85.69,17.86 C85.69,25.06 85.69,32.26 85.69,39.46 C85.69,40.6 85.41,41.78 86.44,42.81 C86.82,43.19 86.63,44.18 86.63,44.89 C86.63,54.2233333 86.63,63.5833333 86.63,72.97 C86.63,73.97 86.36,74.97 87.36,75.84 C87.67,76.09 87.57,76.89 87.57,77.44 C87.57,80.16 87.64,82.88 87.57,85.6 C87.420456,86.8729769 88.2103433,88.0683678 89.44,88.43 C89.5504466,87.8180044 89.6272287,87.2004093 89.67,86.58 C89.67,73.54 89.67,60.5 89.67,47.46 C89.67,46.62 89.81,45.8 88.85,45.16 C88.47,44.9 88.57,43.82 88.57,43.16 C88.57,35.88 88.57,28.6 88.57,21.32 C88.6447796,20.163723 88.4027609,19.0089482 87.87,17.98 C87.04,16.46 87.51,14.62 89.25,13.24 C89.67,14.79 90.92,14.52 92.07,14.59 C93.52,14.67 95.07,14.13 96.36,15.41 C96.69,15.74 97.59,15.48 98.22,15.54 C99.59,15.65 101.08,15.1 102.22,16.36 C102.46,16.62 103.14,16.44 103.62,16.49 C105.21,16.66 106.93,16 108.37,17.36 C108.67,17.65 109.45,17.36 110.01,17.45 C111.46,17.56 112.92,17.15 114.3,18.25 C114.91,18.74 116.16,18.43 117.47,18.5 C117.56,28.05 117.47,37.59 117.53,47.21 L119.77,47.21 L119.77,18.61 C120.93,18.83 121.88,19.06 122.83,19.18 C124.32,19.37 126,18.65 127.22,20.18 C127.38,20.39 127.98,20.27 128.38,20.3 C130.06,20.43 131.72,20.05 133.38,21.12 C134.3,21.7 135.88,21.22 137.16,21.27 C138.07,21.27 139.06,20.97 139.79,21.94 C139.97,22.17 140.52,22.19 140.91,22.21 C143.47,22.27 146.11,21.81 148.69,23.87 L148.69,26 C148.69,34.64 148.69,43.28 148.69,51.92 C148.798805,52.8926458 148.996294,53.8533094 149.28,54.79 Z M119,72.9 L119.63,72.9 C119.860148,71.3075633 119.920486,69.6951839 119.81,68.09 C119.81,66.41 119.9,64.73 119.81,63.09 C119.72,61.45 120.29,59.88 119.02,58.47 L119,72.9 Z M119.37,48.39 C118.59,51.39 118.74,54.85 119.68,56.54 C119.947915,53.8204121 119.830083,51.0766064 119.33,48.39 L119.37,48.39 Z M119,78 L119.54,78 C120.018152,76.6843095 119.816079,75.2174036 119,74.08 L119,78 Z" id="Shape"></path>
                    <path d="M150.8,23.54 C151.86,23.78 152.63,24.04 153.41,24.14 C155.41,24.39 157.41,23.63 159.41,25 C160.06,25.46 161.28,25.07 162.24,25.12 C163.2,25.17 164.32,24.76 164.89,26.12 C165,26.37 165.76,26.37 166.22,26.41 C167.98,26.57 169.78,26.05 171.46,27.27 C172.1,27.73 173.33,27.33 174.29,27.39 C175.58,27.47 176.92,27.05 178.1,28.17 C178.56,28.6 179.63,28.38 180.77,28.48 L180.77,31 C180.77,42.2666667 180.77,53.5433333 180.77,64.83 C180.77,65.83 180.49,66.94 181.49,67.48 C181.164815,68.3426484 180.933481,69.23781 180.8,70.15 C180.7,72.55 180.72,74.95 180.8,77.35 C180.91348,78.0188229 181.101312,78.6728778 181.36,79.3 C181.566244,79.7957705 181.684676,80.3236387 181.71,80.86 C181.53,82.93 182.38,85.12 180.85,87.05 C180.58,87.39 180.78,88.13 180.78,88.69 C180.78,113.49 180.78,138.286667 180.78,163.08 C180.78,163.98 180.33,165.08 181.57,165.54 C180.358034,167.656667 180.404106,170.267413 181.69,172.34 C178.75,171.87 176.02,173.1 173.24,171.54 C172.24,170.95 170.58,171.4 169.24,171.34 C168.32,171.34 167.35,171.58 166.6,170.66 C166.38,170.39 165.71,170.44 165.25,170.4 C164.25,170.29 162.98,170.78 162.4,169.31 C162.31,169.1 161.51,169.15 161.03,169.11 C159.36,168.97 157.6,169.53 156.03,168.25 C155.58,167.88 154.65,168.11 153.67,168.04 C153.67,167.16 153.57,166.32 153.57,165.48 C153.57,159.48 153.57,153.48 153.57,147.48 C153.57,146.58 153.78,145.67 152.91,144.83 C152.48,144.41 152.64,143.32 152.64,142.53 C152.64,129.09 152.64,115.653333 152.64,102.22 C152.64,101.08 152.92,99.91 151.89,98.87 C151.47,98.44 151.7,97.34 151.7,96.55 C151.7,83.35 151.7,70.15 151.7,56.95 C151.7,55.89 152.06,54.73 150.97,53.85 C150.71,53.63 150.77,52.95 150.77,52.48 C150.77,43.1466667 150.77,33.79 150.77,24.41 C150.756217,24.1196674 150.76625,23.8286935 150.8,23.54 L150.8,23.54 Z" id="Path"></path>
                    <path d="M32.58,5.39 C33.91,5.39 34.96,4.88 35.96,5.89 C36.31,6.25 37.14,6.16 37.76,6.22 C39.66,6.42 41.61,5.82 43.48,7.06 C44.27,7.58 45.67,7.13 46.78,7.2 C47.89,7.27 49.16,6.75 50.02,8.08 C50.21,8.38 51.02,8.29 51.61,8.3 C53.44,8.3 55.27,8.3 56.94,8.3 C58.94,10.46 58.48,12.96 58.49,15.35 C58.49,20.14 58.49,24.94 58.49,29.74 C58.49,30.74 58.13,31.91 59.49,32.65 C59.84,32.85 59.76,33.97 59.76,34.65 C59.76,43.36 59.76,52.08 59.76,60.79 C59.76,61.68 59.31,62.74 60.34,63.43 C60.407575,63.4743795 60.4711493,63.5245698 60.53,63.58 C58.53,65.34 60.97,66.91 60.79,68.69 C60.45,72.17 60.69,75.69 60.69,79.23 C60.69,81.75 60.69,81.75 62.51,83.61 C61.85,84.43 61.33,85.14 62.07,86.41 C62.9807831,88.2403104 63.0102182,90.3853877 62.15,92.24 C62.08,92.44 61.89,92.6 61.96,92.51 C62.2559784,93.2780452 62.4672296,94.0761056 62.59,94.89 C62.64,98.73 62.59,102.57 62.59,106.41 C62.6561112,106.723216 62.6561112,107.046784 62.59,107.36 C60.67,111.46 62.15,115.79 61.69,119.99 C63.69,124.57 62.39,129.37 62.59,134.06 C62.82,139.57 62.59,145.06 62.59,150.61 L62.59,153.12 C60.59,152.99 58.84,153.9 57.17,152.5 C56.77,152.17 55.94,152.33 55.32,152.27 C54.19,152.17 52.95,152.65 52.1,151.34 C51.91,151.05 51.05,151.21 50.5,151.15 C48.59,150.95 46.5,151.74 44.81,150.26 C44.57,150.05 44.03,150.21 43.63,150.19 C42.86,150.19 42.01,150.38 41.49,149.5 C41.3256825,149.325459 41.0878309,149.239981 40.85,149.27 C38.6139464,149.438102 36.3793593,148.925646 34.44,147.8 C34.44,147.23 34.44,146.37 34.44,145.52 C34.35,144.23 34.82,142.87 33.66,141.7 C33.28,141.32 33.49,140.33 33.49,139.61 C33.49,130.26 33.49,120.91 33.49,111.55 C33.49,110.66 33.92,109.61 32.88,108.9 C32.79,108.85 32.94,108.41 33.01,108.16 C33.08,107.91 33.32,107.59 33.26,107.37 C32.38,104.47 32.39,104.48 33.38,101.77 C33.5110049,101.223633 33.5515426,100.659484 33.5,100.1 C33.5,90.8333333 33.5,81.56 33.5,72.28 C33.6327439,71.4144647 33.3806992,70.5341346 32.81,69.87 C32.39,69.42 32.56,68.36 32.56,67.57 C32.56,56.14 32.56,44.7 32.56,33.27 C32.56,32.06 32.96,30.75 31.77,29.71 C31.47,29.45 31.62,28.64 31.62,28.08 C31.62,23.08 31.62,18.17 31.62,13.21 C31.740625,12.4691664 31.9452785,11.7444915 32.23,11.05 C32.39381,10.4521891 32.4943619,9.8388227 32.53,9.22 C32.61,8 32.58,6.74 32.58,5.39 Z" id="Path"></path>
                    <path d="M30.65,148.26 C29.26,148.21 28.28,148.61 27.37,147.64 C27,147.25 26.02,147.43 25.31,147.35 C23.87,147.2 22.38,147.73 21.02,146.54 C20.51,146.09 19.32,146.44 18.45,146.38 C17.58,146.32 16.81,146.66 16.45,145.56 C16.38,145.35 15.95,145.17 15.67,145.14 C13.9747471,145.077796 12.2944276,144.798863 10.67,144.31 C8.85,143.71 6.67,144.22 4.58,142.63 L4.58,140.45 C4.58,132.7 4.58,124.94 4.58,117.19 C4.58,116.05 4.89,114.87 3.85,113.84 C3.47,113.46 3.64,112.47 3.64,111.76 C3.64,102.76 3.64,93.69 3.64,84.66 C3.64,83.36 4.02,82.01 2.87,80.83 C2.49,80.45 2.7,79.46 2.7,78.74 C2.7,69.79 2.7,60.84 2.7,51.88 C2.7,50.81 2.96,49.72 1.97,48.77 C1.59,48.4 1.76,47.4 1.76,46.69 C1.76,38.37 1.76,30.0533333 1.76,21.74 C1.76,20.74 2.06,19.66 1.03,18.89 C0.84,18.75 0.82,18.3 0.82,17.99 C0.82,12.17 0.82,6.34 0.82,0.38 C2.33,0.23 3.63,-0.35 4.93,0.88 C5.33,1.26 6.3,1.08 7.01,1.1 C8.37,1.1 9.73,1.1 11.09,1.15 C12.88,3.26 15.32,2.09 17.47,2.4 C17.85,2.4 18.41,2.4 18.57,2.67 C19.15,3.51 19.97,3.29 20.74,3.35 C22.34,3.48 23.99,2.97 25.5,4.2 C26.04,4.63 27.2,4.29 28.08,4.32 C28.55,4.32 29.02,4.38 29.63,4.42 C29.68,5.19 29.77,5.89 29.77,6.58 C29.77,11.58 29.77,16.66 29.77,21.69 C29.77,22.56 29.26,23.69 30.41,24.29 C30.47,24.29 30.18,24.89 30.12,25.22 C30.06,25.55 29.92,26.06 30.07,26.22 C30.6,26.67 30.83,26.97 30.13,27.49 C29.88,27.67 29.92,28.2 29.74,28.49 C29.15,29.54 30.81,30.07 30.29,31.19 C29.9953144,32.0460342 29.8137769,32.9369127 29.75,33.84 C29.58,34.84 31.14,35.74 29.89,36.84 C30.64,37.39 31,37.84 30.07,38.71 C29.86,38.9 30.52,39.98 30.68,40.71 C30.7351544,41.1850712 30.7351544,41.6649288 30.68,42.14 L30.68,148.26 L30.65,148.26 Z" id="Path"></path>
                    <path d="M183.62,173.16 L183.62,170.35 C183.62,164.43 183.62,158.513333 183.62,152.6 C183.62,151.68 183.82,150.74 182.94,149.96 C182.62,149.68 182.69,148.96 182.68,148.37 C182.68,147.01 182.68,145.65 182.68,144.29 C182.68,110.956667 182.68,77.6233333 182.68,44.29 C182.68,43.16 183.1,41.9 181.93,40.96 C181.71,40.78 181.75,40.21 181.75,39.82 C181.75,37.42 181.75,35.02 181.75,32.62 C181.75,32.13 182.16,31.62 182.23,31.16 C182.212705,30.5802813 182.13563,30.0038949 182,29.44 L183,28.68 C183.853944,28.9341819 184.722113,29.1378676 185.6,29.29 C186.81,29.44 188.1,29.02 189.15,30.13 C189.43,30.43 190.23,30.23 190.78,30.27 C192.31,30.4 193.78,30.07 195.32,31.07 C196.22,31.66 197.81,31.18 199.09,31.24 C200.09,31.24 201.15,30.9 201.86,32.07 C202.02,32.33 202.73,32.32 203.19,32.34 C204.19,32.34 205.27,32.34 206.31,32.34 C207.5548,32.4685579 208.563153,33.4075104 208.78,34.64 C208.956933,35.3921276 209.177302,36.1333701 209.44,36.86 C208.543561,37.8061556 208.451002,39.2576426 209.22,40.31 C210.039561,41.8511507 210.039561,43.6988493 209.22,45.24 C208.69,46.33 208.45,47.17 209.22,48.24 C209.519087,48.780208 209.661104,49.3933069 209.63,50.01 C209.67,52.09 209.67,54.17 209.63,56.25 C209.63,57 209.93,57.87 209.05,58.43 C208.931411,58.5953593 208.901512,58.8083842 208.97,59 C210.16,59.93 209.62,61.23 209.62,62.34 C209.62,99.9266667 209.62,137.513333 209.62,175.1 L209.62,177.9 C208.37,177.68 207.29,177.45 206.19,177.31 C205.09,177.17 204.12,177.59 203.33,176.55 C203.16,176.32 202.59,176.38 202.2,176.35 C200.78,176.2 199.2,176.81 198.04,175.35 C197.78,175.03 196.82,175.28 196.18,175.24 C194.81,175.13 193.34,175.65 192.18,174.41 C191.94,174.15 191.26,174.32 190.78,174.28 C189.19,174.12 187.5,174.74 186.03,173.42 C185.65,173 184.69,173.23 183.62,173.16 Z" id="Path"></path>
                    <path d="M119,72.9 L119,58.45 C120.27,59.86 119.7,61.52 119.79,63.07 C119.88,64.62 119.85,66.42 119.79,68.07 C119.900486,69.6751839 119.840148,71.2875633 119.61,72.88 L119,72.9 Z" id="Path"></path>
                    <path d="M119.33,48.39 C119.816739,51.0784994 119.921105,53.8222942 119.64,56.54 C118.7,54.85 118.55,51.43 119.33,48.39 Z" id="Path"></path>
                    <path d="M119,78 L119,74.05 C119.816079,75.1874036 120.018152,76.6543095 119.54,77.97 L119,78 Z" id="Path"></path>
                </g>
                <g id="b" transform="translate(288.000000, 4.000000)" fill="#000000" fill-rule="nonzero">
                    <path d="M31.05,140.12 C31.44,131.5 31.44,122.84 32.33,114.28 C33.16,106.36 38.45,102.59 47,102.68 C52.65,102.74 56.69,106.45 57.05,114.03 C57.7,127.77 57.53,141.56 57.53,155.32 C57.6039436,158.793361 57.2308837,162.26181 56.42,165.64 C54.74,172.04 48.77,175.34 41.15,174.64 C35.88,174.16 32.59,170.84 32.15,164.01 C31.67,156.08 32.04,148.09 32.04,140.12 L31.05,140.12 Z M41.29,138.12 L41.29,138.12 C41.29,145.6 41.17,153.12 41.41,160.55 C41.41,161.97 42.96,163.33 43.8,164.73 C45.2302554,163.675298 46.5683932,162.501082 47.8,161.22 C48.33,160.59 48.22,159.32 48.2,158.34 C47.95,144.56 47.76,130.78 47.26,117.01 C47.2,115.44 45.26,113.94 44.26,112.4 C43.26,114 41.47,115.55 41.4,117.19 C41.11,124.18 41.29,131.17 41.29,138.15 L41.29,138.12 Z" id="Shape"></path>
                    <path d="M168.46,114.08 C173.58,115.95 173.81,120.55 173.98,125.32 C174.26,133.24 174.76,141.15 175.2,149.56 L164.92,151.69 C164.7,148.28 164.37,145.23 164.34,142.18 C164.28,136.35 164.42,130.52 164.42,124.69 C164.42,119.14 163.5,118.46 157.5,119.76 L157.5,152.58 L148.38,154.13 L148.38,83.66 C153.44,82.99 159.13,82.13 164.84,81.51 C169.42,81.02 172.66,83.67 173.05,87.77 C173.611445,94.3439657 173.55788,100.955993 172.89,107.52 C172.68,109.72 170.14,111.7 168.46,114.08 Z M157.59,91.19 L157.59,111.4 C162.51,112.52 164.28,110.21 164.37,105.95 C164.44,102.64 164.48,99.31 164.37,96 C164.31,90.42 163.56,89.9 157.59,91.19 Z" id="Shape"></path>
                    <path d="M89.63,62.85 C89.12,67.69 88.76,75.5 87.36,83.11 C86.01,90.46 80.53,94.03 73.21,93.56 C66.79,93.14 62.88,89.41 62.47,82.11 C61.97,73.22 62.04,64.29 62.05,55.38 C62.05,49.05 61.99,42.7 62.59,36.38 C63.7,24.56 68.81,22.6 79,22 C83.91,21.71 87.69,26.18 88.14,32.52 C88.79,41.63 89.06,50.76 89.63,62.85 Z M71.49,57.69 L71.59,57.69 C71.59,64.82 71.41,71.96 71.74,79.08 C71.81,80.62 73.74,82.08 74.74,83.58 C76.2257067,82.2724761 77.6378685,80.8836833 78.97,79.42 C79.39,78.9 79.17,77.81 79.17,76.98 C79.11,63.89 79.17,50.79 78.82,37.7 C78.77,35.75 76.77,33.84 75.67,31.91 C74.27,33.91 71.83,35.74 71.67,37.8 C71.16,44.39 71.49,51.05 71.49,57.69 Z" id="Shape"></path>
                    <path d="M30.29,30.42 C34.78,29.64 39.93,28.35 45.14,27.97 C49.3851344,27.4568662 53.2832843,30.3727704 53.99,34.59 C55.0839026,40.2849654 55.3633603,46.1064384 54.82,51.88 C54.44,55.25 51.48,58.34 49.71,61.52 C53.92,62.46 55.17,66.21 55.3,70.89 C55.54,79.3 55.95,87.7 56.3,96.89 L47.07,98.39 C46.7193846,96.4985641 46.4756647,94.5888684 46.34,92.67 C46.26,85.67 46.34,78.67 46.27,71.67 C46.27,68.85 45.77,66.42 41.92,66.47 C38.07,66.52 38.36,68.92 38.45,71.54 C38.68,78.19 38.88,84.84 38.94,91.54 C39.02,101.6 40.48,99.64 30.27,101.66 L30.29,30.42 Z M38.45,58.77 L40.56,60.11 C42.45,58.29 45.65,56.69 45.98,54.62 C46.71,50.07 45.98,45.28 45.87,40.62 C45.8,37.53 43.87,37.4 41.43,37.53 C38.66,37.68 38.33,39.09 38.43,41.46 C38.56,47.21 38.45,53 38.45,58.77 L38.45,58.77 Z" id="Shape"></path>
                    <path d="M197.44,98.56 C197.44,95.64 197.77,92.63 197.32,89.74 C197.05,88.03 195.55,86.51 194.61,84.9 C193.23,86.54 190.9,88.05 190.61,89.84 C189.85,95.6 191.61,100.6 196.76,104.09 C201.68,107.43 206.42,111.48 206.64,117.74 C207.047024,124.781002 206.502108,131.844731 205.02,138.74 C203.48,145.1 197.02,148.19 190.48,147.61 C184.97,147.12 180.91,143.46 180.48,137.61 C180.05,131.76 180.38,126.01 180.38,119.87 L188.94,118.42 C189.38,124 189.59,129.12 190.33,134.16 C190.52,135.4 192.62,137.37 193.57,137.22 C194.93,137.02 197.04,135.22 197.09,134.02 C197.45,125.57 198.09,117.27 189.01,111.67 C179.93,106.07 177.24,92.97 182.19,83.32 C184.71,78.39 193.29,75.07 199.58,76.58 C203.73,77.58 206.03,81.58 206.23,88.22 C206.23,89.05 206.23,89.88 206.23,90.72 C206.33,98.75 206.17,98.9 197.44,98.56 Z" id="Path"></path>
                    <path d="M167.34,30.45 C167.34,27.12 167.78,24.06 167.18,21.22 C166.79,19.39 164.87,17.89 163.64,16.22 C162.5,17.77 160.64,19.22 160.35,20.9 C159.2,28.05 161.57,33.64 167.8,38.03 C177.6,44.92 180.23,62.8 173.44,72.81 C170.29,77.44 163.73,79.51 157.89,77.71 C152.76,76.12 150.53,72.71 150.45,66.22 C150.39,61.22 150.45,56.3 150.45,50.94 L159.22,50.33 C159.22,55.26 158.98,59.88 159.35,64.45 C159.47,65.95 161.16,67.32 162.13,68.76 C163.55,67.47 166.06,66.29 166.2,64.87 C166.99,56.98 166.83,49.64 158.86,44.23 C149.59,37.95 148.59,28.04 150.78,17.87 C152.33,10.65 163.45,4.95 169.93,8.2 C172.25,9.36 174.07,12.38 175.13,14.95 C176.08,17.29 175.93,20.19 175.86,22.82 C175.68,30 175.6,30 167.34,30.45 Z" id="Path"></path>
                    <path d="M86.67,120.43 L79.43,120.93 C79.2324962,117.394182 78.8385549,113.87208 78.25,110.38 C77.94,108.97 76.25,107.87 75.19,106.62 C73.9,107.88 71.65,109.01 71.49,110.4 C70.74,116.73 71.66,122.53 77.49,126.78 C88.56,134.87 89.93,148.78 86.67,160.17 C84.67,167.07 75.67,171.12 68.76,169.08 C62.76,167.3 62.08,162.24 61.5,157.33 C61.07,153.72 61.62,149.99 61.32,146.33 C60.99,142.33 62.23,140.33 66.47,140.58 C67.7945322,140.515617 69.1102019,140.328142 70.4,140.02 C70.4,144.91 70.07,149.74 70.57,154.48 C70.75,156.28 72.83,157.89 74.04,159.58 C75.49,157.88 77.94,156.32 78.21,154.45 C79.32,146.73 76.81,140.2 70.8,134.87 C61.53,126.67 58.86,115.27 63.25,104.66 C65.45,99.35 70.02,97.02 77.25,97.58 C82.34,97.98 84.4,101.71 85.25,105.9 C86.13,110.58 86.21,115.41 86.67,120.43 Z" id="Path"></path>
                    <path d="M0.64,181.64 C0.64,164.51 0.64,148.09 0.64,131.64 C0.64,126.16 0.85,120.64 0.74,115.21 C0.67,111.8 2.06,110.02 5.42,109.57 C7.40425151,109.354951 9.36325181,108.949756 11.27,108.36 C20.51,105.19 26.44,111.14 26.5,122.05 C26.5,125.33 27.21,128.6 27.15,131.87 C26.99,140.03 24.37,143.44 16.39,144.68 C11.12,145.51 9.7,147.76 10.14,152.95 C10.75,160.06 10.08,167.27 10.52,174.4 C10.78,178.8 9.73,181.06 5,180.72 C4.07,180.68 3.09,181.12 0.64,181.64 Z M10.4,137.09 L12.74,138.09 C14.26,136.69 16.89,135.43 17.09,133.85 C17.5618583,129.417859 17.5383802,124.946941 17.02,120.52 C16.93,119.52 14.91,118.14 13.62,117.93 C12.68,117.77 10.62,119.22 10.54,120.02 C10.27,125.69 10.4,131.39 10.4,137.09 Z" id="Shape"></path>
                    <path d="M9.83,105.53 L0.64,107.16 L0.64,36 C5.5,35.24 11.27,33.93 17.09,33.57 C21.42,33.31 24.88,37.22 25.29,42.57 C25.7599206,48.8592067 25.8300617,55.1719046 25.5,61.47 C25.22,66.88 22.36,69.55 15.96,70.47 C11.07,71.2 9.04,72.61 9.61,78.32 C10.46,87.07 9.83,96 9.83,105.53 Z M9.69,44.09 L9.69,63.72 C14.56,63.93 16.8,62.08 16.45,57.34 C16.25,54.55 16.36,51.73 16.36,48.93 C16.37,44.43 14.49,42.47 9.69,44.09 Z" id="Shape"></path>
                    <path d="M121.61,88 C126.56,87.21 131.49,86.69 136.29,85.57 C140.38,84.57 141.97,85.68 141.35,89.89 C141.216994,91.135578 141.150234,92.3873408 141.15,93.64 C140.66,93.98 140.42,94.26 140.15,94.33 C131.35,96.33 131.36,96.33 131.4,105.14 C131.4,108.93 131.4,112.72 131.4,116.94 L140,116.26 L140,123.26 L131.52,125.17 L131.52,148.88 L143.35,147.51 L143.35,156.35 L121.62,160.26 L121.61,88 Z" id="Path"></path>
                    <path d="M134.51,41.65 L142.07,41.65 L142.07,48 C134.49,50.44 134.48,50.44 134.46,58.38 C134.46,63.0466667 134.46,67.7133333 134.46,72.38 C134.46,72.68 134.72,72.98 134.98,73.54 L145.98,71.85 C147.77,80.13 147.45,80.76 139.77,81.85 C134.87,82.54 129.92,82.85 125.08,83.37 L125.08,13.44 L145,10.21 L145,18.82 C144.61,19.08 144.37,19.36 144.08,19.42 C134.46,21.27 134.46,21.27 134.5,31.07 C134.52,34.53 134.51,38 134.51,41.65 Z" id="Path"></path>
                    <path d="M118.76,98.13 C118.18,98.46 118.04,98.56 117.89,98.62 C115.29,99.62 111.68,99.89 110.36,101.77 C109.04,103.65 109.9,107.18 109.88,109.98 C109.78,125.7 109.69,141.423333 109.61,157.15 C109.61,158.46 109.43,159.77 109.3,161.41 L99.52,163.23 L99.52,102.51 L90.68,103.57 C90.5762162,101.073385 90.6095998,98.5729544 90.78,96.08 C91.0199715,95.0293252 91.77118,94.1691914 92.78,93.79 C101.07,92.23 109.4,90.86 118.19,89.35 C118.37,92.46 118.56,95.19 118.76,98.13 Z" id="Path"></path>
                    <path d="M207.19,0.34 L207.19,9.58 C206.79,9.87 206.55,10.21 206.27,10.25 C198.98,11.25 199.15,11.25 199.12,18.55 C199.06,34.28 198.63,50.01 198.75,65.74 C198.75,70.48 197.75,73.08 192.55,72.61 C191.290032,72.6705881 190.041511,72.8786749 188.83,73.23 L188.83,13.71 L180.72,13.71 L180.72,4.77 L207.19,0.34 Z" id="Path"></path>
                    <path d="M92.81,19.19 L120,14.5 C120.14,17.55 120.27,20.26 120.39,22.79 C119.9,23.19 119.69,23.48 119.39,23.56 C111.33,25.98 111.32,25.97 111.32,34.56 L111.32,86.38 L102.07,87.92 L102.07,27.44 L92.82,28.44 L92.81,19.19 Z" id="Path"></path>
                </g>
            </g>
        </g>
    </g>
</svg>