<svg width="73" height="113" fill="none" xmlns="http://www.w3.org/2000/svg"><path fill="#FFC700" d="M.111 0h72v83h-72z"/><path d="M11.554 35.28c3.115 0 5.27-1.24 5.27-3.86 0-1.999-1.426-3.038-3.89-3.487l-2.31-.418c-.682-.125-1.039-.45-1.039-.915 0-.589.496-.93 1.628-.93 1.395 0 3.115.434 4.324.899l.806-2.433c-1.906-.605-3.177-.884-4.851-.884-3.178 0-5.332 1.318-5.332 3.767 0 2.139 1.55 3.162 3.658 3.518l2.294.403c.821.155 1.162.45 1.162.992 0 .636-.62.899-1.844.899-1.69 0-3.658-.512-4.836-.93l-.62 2.433c1.798.59 3.596.946 5.58.946zm7.239-.155h3.286v-4.588h4.03v4.588h3.286V23.407h-3.286v4.34h-4.03v-4.34h-3.286v11.718zm20.716 0h3.658l-4.402-11.718h-3.503L30.89 35.125h2.542l.868-2.542h4.37l.838 2.542zm-4.418-4.836l1.442-4.216 1.38 4.216H35.09zm20.25 4.836l-2.713-5.487c1.441-.419 2.434-1.38 2.434-2.992 0-2.015-1.426-3.239-4.139-3.239h-6.247v11.718h3.286v-4.046h2.077l1.643 4.046h3.658zm-7.379-9.424h2.108c1.086 0 1.55.573 1.55 1.55 0 .883-.464 1.534-1.55 1.534h-2.108v-3.084zm9.066 9.424h9.176v-2.79h-5.89v-2.108h3.72v-2.108h-3.72v-1.984h5.766v-2.728h-9.052v11.718zm-38.312 16h3.286v-9.052h3.875v-2.666H14.841v2.666h3.875v9.052zm8.788 0h3.286v-4.588h4.03v4.588h3.286V39.407H34.82v4.34h-4.03v-4.34h-3.286v11.718zm13.23 0h3.285V39.407h-3.286v11.718zm10.924.155c3.116 0 5.27-1.24 5.27-3.86 0-1.999-1.426-3.038-3.89-3.487l-2.31-.419c-.682-.123-1.038-.449-1.038-.914 0-.589.496-.93 1.627-.93 1.395 0 3.116.434 4.325.899l.806-2.434c-1.907-.604-3.178-.883-4.852-.883-3.177 0-5.332 1.317-5.332 3.767 0 2.139 1.55 3.162 3.658 3.518l2.294.403c.822.155 1.163.45 1.163.992 0 .636-.62.899-1.845.899-1.69 0-3.658-.512-4.836-.93l-.62 2.433c1.798.59 3.596.946 5.58.946zM35.713 62.785h.682c.527-1.131 1.89-2.061 1.89-4.944 0-.342-.015-.714-.061-1.101l-.155-1.488h-4.03l-.155 1.488c-.047.387-.062.76-.062 1.1 0 2.883 1.364 3.813 1.89 4.945zm-1.287 4.34h3.255v-3.41h-3.255v3.41zM33.598 83h4.097v29.5h-4.097z" fill="#000"/></svg>